<svg xmlns="http://www.w3.org/2000/svg" viewBox="0 0 128 128" xmlns:v="https://vecta.io/nano"><circle fill="#fff" cx="64.149" cy="64.236" r="60.999"/><path fill-opacity=".1" d="M102.966 75.327c0-21.439-17.379-38.819-38.817-38.819s-38.818 17.38-38.818 38.819h11.09c0-15.314 12.415-27.727 27.727-27.727s27.727 12.413 27.727 27.727"/><circle fill-opacity=".1" cx="66.922" cy="71.999" r="21.072"/><linearGradient id="A" gradientUnits="userSpaceOnUse" x1="64.162" y1="41.463" x2="64.162" y2="86.973"><stop offset="0" stop-color="#81b4e0"/><stop offset="1" stop-color="#0c5a94"/></linearGradient><circle fill="url(#A)" cx="64.149" cy="64.235" r="22.736"/><linearGradient id="B" gradientUnits="userSpaceOnUse" x1="66.09" y1="2.127" x2="66.09" y2="52.59"><stop offset="0" stop-color="#f06b59"/><stop offset="1" stop-color="#df2227"/></linearGradient><path fill="url(#B)" d="M119.602 36.508C104.336 5.792 67.06-6.732 36.343 8.534A62.105 62.105 0 0012.578 29.3l24.955 43.253c-4.597-14.606 3.521-30.174 18.127-34.77a27.676 27.676 0 017.935-1.274"/><linearGradient id="C" gradientUnits="userSpaceOnUse" x1="17.165" y1="108.382" x2="42.673" y2="66.238"><stop offset="0" stop-color="#388b41"/><stop offset="1" stop-color="#4cb749"/></linearGradient><path fill="url(#C)" d="M12.578 29.3c-19.1 28.492-11.486 67.071 17.005 86.171a62.133 62.133 0 0029.575 10.319l26.063-44.363c-9.745 11.811-27.22 13.486-39.032 3.74a27.717 27.717 0 01-8.657-12.613"/><linearGradient id="D" gradientUnits="userSpaceOnUse" x1="102.615" y1="112.865" x2="75.443" y2="47.43"><stop offset="0" stop-color="#e4b022"/><stop offset=".3" stop-color="#fcd209"/></linearGradient><path fill="url(#D)" d="M59.158 125.791c34.204 2.585 64.027-23.047 66.613-57.25a62.097 62.097 0 00-6.17-32.031H63.595c15.312.07 27.67 12.541 27.598 27.854a27.725 27.725 0 01-5.972 17.064"/><linearGradient id="E" gradientUnits="userSpaceOnUse" x1="25.609" y1="70.89" x2="25.609" y2="26.528"><stop offset="0" stop-opacity=".15"/><stop offset=".3" stop-opacity=".06"/><stop offset="1" stop-opacity=".03"/></linearGradient><path fill="url(#E)" d="M12.578 29.3l24.955 43.253a27.725 27.725 0 011.107-18.854L13.686 27.636"/><linearGradient id="F" gradientUnits="userSpaceOnUse" x1="86.842" y1="85.216" x2="56.343" y2="116.27"><stop offset="0" stop-opacity=".15"/><stop offset=".3" stop-opacity=".06"/><stop offset="1" stop-opacity=".03"/></linearGradient><path fill="url(#F)" d="M59.158 125.791l26.063-44.363a27.731 27.731 0 01-16.082 9.426l-11.091 34.937"/><linearGradient id="G" gradientUnits="userSpaceOnUse" x1="86.4" y1="94.154" x2="90.837" y2="50.344"><stop offset="0" stop-opacity=".15"/><stop offset=".3" stop-opacity=".06"/><stop offset="1" stop-opacity=".03"/></linearGradient><path fill="url(#G)" d="M119.602 36.508H63.595a27.727 27.727 0 0121.626 10.537l35.491-8.873"/></svg>