<?xml version="1.0" encoding="UTF-8"?>
<!DOCTYPE svg PUBLIC "-//W3C//DTD SVG 1.1//EN" "http://www.w3.org/Graphics/SVG/1.1/DTD/svg11.dtd">
<svg xmlns="http://www.w3.org/2000/svg" xmlns:xlink="http://www.w3.org/1999/xlink" version="1.1" width="60px" height="56px" viewBox="-0.5 -0.5 60 56"><defs/><g><g><rect x="0" y="0" width="60" height="56" fill="none" stroke="none" pointer-events="all"/><path d="M 33.79 39.1 L 30.69 37.83 C 30.25 37.58 30.06 37.22 30.24 36.71 L 31.42 33.91 C 31.67 33.49 32.01 33.24 32.53 33.45 L 35.43 34.9 C 36.35 33.81 37.35 32.74 38.48 31.8 L 37.21 28.72 C 37.11 28.35 37.07 27.99 37.62 27.64 L 40.52 26.43 C 41.07 26.25 41.38 26.49 41.57 26.81 L 42.87 29.97 C 44.18 29.72 45.47 29.6 46.99 30.04 L 48.3 26.84 C 48.58 26.39 48.95 26.27 49.38 26.43 L 52.27 27.65 C 52.75 27.94 52.8 28.3 52.68 28.68 L 51.39 31.84 C 52.53 32.74 53.56 33.7 54.4 34.78 L 57.51 33.52 C 58.07 33.37 58.4 33.58 58.61 33.99 L 59.83 36.86 C 59.91 37.28 59.82 37.64 59.39 37.88 L 56.23 39.15 C 56.38 40.38 56.36 41.92 56.23 43.27 L 59.39 44.54 C 59.81 44.8 60 45.14 59.87 45.59 L 58.72 48.28 C 58.49 48.63 58.18 48.81 57.72 48.69 L 54.53 47.41 C 53.69 48.55 52.65 49.56 51.47 50.45 L 52.74 53.54 C 52.93 54.03 52.68 54.45 52.37 54.6 L 49.32 55.87 C 48.91 55.95 48.54 55.91 48.36 55.4 L 47.07 52.24 C 45.89 52.56 44.45 52.65 42.96 52.27 L 41.67 55.39 C 41.47 55.72 41.24 56 40.67 55.86 L 37.69 54.63 C 37.26 54.33 37.07 53.96 37.34 53.45 L 38.76 50.64 C 37.51 49.7 36.46 48.7 35.64 47.63 L 32.59 48.88 C 32.11 49.05 31.73 48.94 31.45 48.5 L 30.23 45.6 C 30.1 45.21 30.2 44.76 30.65 44.54 L 33.81 43.18 C 33.68 41.83 33.67 40.46 33.79 39.1 Z M 37.19 41.08 C 37.19 45.9 41.19 48.89 45.09 48.89 C 49.33 48.89 52.84 45.31 52.84 41.15 C 52.84 36.69 49.06 33.34 45.11 33.34 C 41.25 33.34 37.19 36.24 37.19 41.08 Z M 8.39 6.15 C 11.03 3.94 13.6 2.45 16.13 1.52 C 14.84 3.03 13.52 4.96 12.14 7.94 C 10.73 7.34 9.45 6.75 8.39 6.15 Z M 1.45 17.14 C 2.51 13.6 4.3 10.63 6.61 8.08 C 8.28 9.2 9.81 9.79 11.35 10.5 C 10.07 13.99 9.5 17.87 9.3 21.11 C 6.82 20.23 4.34 19.31 1.45 17.14 Z M 1.03 29.95 C 0.22 27.05 0 23.72 0.68 19.74 C 3.03 21.18 5.67 22.54 9.14 23.7 C 9.13 27.6 9.51 31.18 10.32 34.43 C 7.77 33.72 4.84 32.47 1.03 29.95 Z M 11.18 37.49 C 12.92 42.77 14.77 45.01 16.63 47.14 C 8.52 44.1 4.56 38.57 2.37 33.85 C 5.25 35.34 8.14 36.83 11.18 37.49 Z M 23.45 39.45 L 23.45 48.53 C 21.63 48.14 20.11 47.15 18.78 45.81 C 16.66 43.65 15.23 41.05 14.17 38.43 C 17.25 39.05 20.33 39.51 23.45 39.45 Z M 23.45 26.12 L 23.46 36.74 C 20.06 36.83 16.68 36.25 13.28 35.38 C 12.21 31.6 11.74 27.99 11.76 24.5 C 15.6 25.55 19.5 26.04 23.45 26.12 Z M 23.58 23.59 C 19.15 23.42 15.28 22.83 11.87 21.9 C 12.1 18.81 12.18 15.88 13.92 11.29 C 17.77 12.49 22.23 12.83 23.59 12.8 Z M 23.45 10.38 C 20.5 10.25 17.59 9.77 14.72 8.95 C 15.68 6.61 16.92 4.46 18.63 2.65 C 19.66 1.63 20.79 0.67 22.43 0.13 L 23.45 0.13 Z M 25.9 0 L 26.92 0 C 29.25 0.77 30.88 2.59 31.83 3.77 C 33.25 5.56 34.03 7.2 34.77 8.83 C 32.39 9.5 29.63 10.11 25.9 10.25 Z M 26.16 23.57 L 26.16 12.82 C 29.46 12.66 32.68 12.21 35.81 11.28 C 36.87 14.38 37.45 18.05 37.87 21.89 C 34.27 22.93 30.33 23.43 26.16 23.57 Z M 26.01 36.83 L 26.01 26.23 C 29.17 26.31 33.29 25.6 37.74 24.61 L 37.74 25.23 C 37.18 25.43 36.75 25.59 36.38 25.82 C 34.84 26.86 34.85 28.49 35.15 29.39 L 35.9 31.11 L 35.05 31.94 L 33.39 31.22 C 31.92 30.71 30.5 31.34 29.75 32.51 L 28.35 35.76 C 28.23 36.1 28.14 36.42 28.16 36.72 C 27.11 36.86 26.7 36.81 26.01 36.83 Z M 29.53 39.52 L 31.6 40.42 L 31.6 41.62 L 29.81 42.37 C 28.65 42.97 27.71 44.4 28.3 46.11 L 28.77 47.23 C 28.01 47.86 26.92 48.21 26.03 48.41 L 26.03 39.31 C 27.06 39.28 27.6 39.29 29.07 39.13 Z M 40.38 23.58 C 43.62 22.61 46.39 21.33 48.67 19.74 C 48.93 21.41 49.08 22.49 49.08 24.07 C 47.97 24.01 46.76 24.65 46.21 25.77 L 45.55 27.51 L 44.27 27.51 L 43.57 25.81 C 43.15 24.98 42.11 23.94 40.35 24.18 Z M 38.26 10.48 C 39.96 9.79 41.55 9 43.03 8.08 C 46.49 12 47.27 14.62 48.17 17.12 C 45.73 18.78 43.17 20.2 40.33 21.07 C 40.03 17.86 39.58 14.53 38.26 10.48 Z M 33.38 1.51 C 36.62 2.66 38.97 4.35 40.95 6.27 C 39.83 6.9 38.62 7.52 37.22 8.07 C 35.82 4.72 34.58 2.94 33.38 1.51 Z" fill="#505050" stroke="none" pointer-events="all"/></g></g></svg>