<?xml version="1.0" encoding="us-ascii" standalone="no"?><svg xmlns="http://www.w3.org/2000/svg" xmlns:xlink="http://www.w3.org/1999/xlink" contentStyleType="text/css" height="869px" preserveAspectRatio="none" style="width:535px;height:869px;background:#FFFFFF;" version="1.1" viewBox="0 0 535 869" width="535px" zoomAndPan="magnify"><defs/><g><rect fill="#FFFFFF" height="350.5938" style="stroke:#181818;stroke-width:1.0;" width="10" x="18" y="93.2969"/><rect fill="#FFFFFF" height="145.6641" style="stroke:#181818;stroke-width:1.0;" width="10" x="148" y="114.4297"/><rect fill="#FFFFFF" height="145.6641" style="stroke:#181818;stroke-width:1.0;" width="10" x="148" y="289.2266"/><rect fill="#FFFFFF" height="29.1328" style="stroke:#181818;stroke-width:1.0;" width="10" x="317" y="143.5625"/><rect fill="#FFFFFF" height="29.1328" style="stroke:#181818;stroke-width:1.0;" width="10" x="317" y="376.625"/><rect fill="#FFFFFF" height="29.1328" style="stroke:#181818;stroke-width:1.0;" width="10" x="408" y="201.8281"/><rect fill="#FFFFFF" height="29.1328" style="stroke:#181818;stroke-width:1.0;" width="10" x="408" y="318.3594"/><line style="stroke:#181818;stroke-width:0.5;stroke-dasharray:5.0,5.0;" x1="23" x2="23" y1="83.2969" y2="452.8906"/><line style="stroke:#181818;stroke-width:0.5;stroke-dasharray:5.0,5.0;" x1="153" x2="153" y1="83.2969" y2="452.8906"/><line style="stroke:#181818;stroke-width:0.5;stroke-dasharray:5.0,5.0;" x1="322" x2="322" y1="83.2969" y2="452.8906"/><line style="stroke:#181818;stroke-width:0.5;stroke-dasharray:5.0,5.0;" x1="413" x2="413" y1="83.2969" y2="452.8906"/><text fill="#000000" font-family="sans-serif" font-size="14" lengthAdjust="spacing" textLength="30" x="5" y="79.9951">user</text><ellipse cx="23" cy="15.5" fill="#E2E2F0" rx="8" ry="8" style="stroke:#181818;stroke-width:0.5;"/><path d="M23,23.5 L23,50.5 M10,31.5 L36,31.5 M23,50.5 L10,65.5 M23,50.5 L36,65.5 " fill="none" style="stroke:#181818;stroke-width:0.5;"/><text fill="#000000" font-family="sans-serif" font-size="14" lengthAdjust="spacing" textLength="30" x="5" y="464.8857">user</text><ellipse cx="23" cy="476.6875" fill="#E2E2F0" rx="8" ry="8" style="stroke:#181818;stroke-width:0.5;"/><path d="M23,484.6875 L23,511.6875 M10,492.6875 L36,492.6875 M23,511.6875 L10,526.6875 M23,511.6875 L36,526.6875 " fill="none" style="stroke:#181818;stroke-width:0.5;"/><rect fill="#E2E2F0" height="75.2969" rx="2.5" ry="2.5" style="stroke:#181818;stroke-width:0.5;" width="76" x="115" y="7"/><path d="M173.038,26.107 L172.638,26.107 L155.138,26.107 C151.122,25.473 147.739,26.64 144.988,29.607 A15.172,15.172 0 0 0 143.438,32.007 A391.45,391.45 0 0 0 134.038,24.907 A0.3,0.3 0 0 0 133.838,24.707 C137.336,19.187 142.303,15.737 148.738,14.357 C157.254,13.006 164.404,15.49 170.188,21.807 A20.62,20.62 0 0 1 173.038,26.107 " fill="#D31A1A" style="stroke:;stroke-width:0.0;stroke-dasharray:;"/><path d="M133.838,24.707 A0.3,0.3 0 0 1 134.038,24.907 L142.638,38.407 C143.848,43.434 147.015,46.317 152.138,47.057 A13.73,13.73 0 0 0 154.438,47.007 L152.038,58.407 C152.042,58.499 152.076,58.565 152.138,58.607 L151.938,59.007 C144.806,58.517 139.089,55.45 134.788,49.807 C130.302,43.24 129.336,36.173 131.888,28.607 C132.397,27.224 133.047,25.924 133.838,24.707 " fill="#0FA05F" style="stroke:;stroke-width:0.0;stroke-dasharray:;"/><path d="M134.038,24.907 A391.45,391.45 0 0 1 143.438,32.007 C142.515,34.057 142.248,36.19 142.638,38.407 " fill="#BE1817" style="stroke:;stroke-width:0.0;stroke-dasharray:;"/><path d="M155.138,26.107 A11.02,11.02 0 0 1 161.338,29.907 C164.108,33.775 164.358,37.808 162.088,42.007 A27.003,27.003 0 0 1 160.738,43.807 A11.44,11.44 0 0 1 154.438,47.007 A13.73,13.73 0 0 1 152.138,47.057 C147.015,46.317 143.848,43.434 142.638,38.407 C142.248,36.19 142.515,34.057 143.438,32.007 A15.172,15.172 0 0 1 144.988,29.607 C147.739,26.64 151.122,25.473 155.138,26.107 " fill="#FDFDFD" style="stroke:;stroke-width:0.0;stroke-dasharray:;"/><path d="M155.138,26.107 L172.638,26.107 L161.438,29.757 C161.382,29.795 161.349,29.845 161.338,29.907 A11.02,11.02 0 0 0 155.138,26.107 " fill="#E6B42C" style="stroke:;stroke-width:0.0;stroke-dasharray:;"/><path d="M172.638,26.107 L173.038,26.107 C175.49,30.919 176.173,35.986 175.088,41.307 C173.38,48.377 169.297,53.561 162.838,56.857 A22.36,22.36 0 0 1 151.938,59.007 L152.138,58.607 L160.738,43.807 A27.003,27.003 0 0 0 162.088,42.007 C164.358,37.808 164.108,33.775 161.338,29.907 C161.349,29.845 161.382,29.795 161.438,29.757 " fill="#FEC831" style="stroke:;stroke-width:0.0;stroke-dasharray:;"/><path d="M151.738,27.807 C155.561,27.494 158.511,28.927 160.588,32.107 C161.973,34.709 162.106,37.376 160.988,40.107 C158.91,44.021 155.66,45.671 151.238,45.057 C147.402,44.054 145.118,41.604 144.388,37.707 C144.169,32.407 146.619,29.107 151.738,27.807 " fill="#367BF0" style="stroke:;stroke-width:0.0;stroke-dasharray:;"/><path d="M160.738,43.807 L152.138,58.607 C152.076,58.565 152.042,58.499 152.038,58.407 L154.438,47.007 A11.44,11.44 0 0 0 160.738,43.807 " fill="#139156" style="stroke:;stroke-width:0.0;stroke-dasharray:;"/><text fill="#000000" font-family="sans-serif" font-size="14" lengthAdjust="spacing" textLength="58" x="126" y="71.9951">Browser</text><rect fill="#E2E2F0" height="75.2969" rx="2.5" ry="2.5" style="stroke:#181818;stroke-width:0.5;" width="76" x="115" y="451.8906"/><path d="M173.038,470.9976 L172.638,470.9976 L155.138,470.9976 C151.122,470.3636 147.739,471.5306 144.988,474.4976 A15.172,15.172 0 0 0 143.438,476.8976 A391.45,391.45 0 0 0 134.038,469.7976 A0.3,0.3 0 0 0 133.838,469.5976 C137.336,464.0776 142.303,460.6276 148.738,459.2476 C157.254,457.8966 164.404,460.3806 170.188,466.6976 A20.62,20.62 0 0 1 173.038,470.9976 " fill="#D31A1A" style="stroke:;stroke-width:0.0;stroke-dasharray:;"/><path d="M133.838,469.5976 A0.3,0.3 0 0 1 134.038,469.7976 L142.638,483.2976 C143.848,488.3246 147.015,491.2076 152.138,491.9476 A13.73,13.73 0 0 0 154.438,491.8976 L152.038,503.2976 C152.042,503.3896 152.076,503.4556 152.138,503.4976 L151.938,503.8976 C144.806,503.4076 139.089,500.3406 134.788,494.6976 C130.302,488.1306 129.336,481.0636 131.888,473.4976 C132.397,472.1146 133.047,470.8146 133.838,469.5976 " fill="#0FA05F" style="stroke:;stroke-width:0.0;stroke-dasharray:;"/><path d="M134.038,469.7976 A391.45,391.45 0 0 1 143.438,476.8976 C142.515,478.9476 142.248,481.0806 142.638,483.2976 " fill="#BE1817" style="stroke:;stroke-width:0.0;stroke-dasharray:;"/><path d="M155.138,470.9976 A11.02,11.02 0 0 1 161.338,474.7976 C164.108,478.6656 164.358,482.6986 162.088,486.8976 A27.003,27.003 0 0 1 160.738,488.6976 A11.44,11.44 0 0 1 154.438,491.8976 A13.73,13.73 0 0 1 152.138,491.9476 C147.015,491.2076 143.848,488.3246 142.638,483.2976 C142.248,481.0806 142.515,478.9476 143.438,476.8976 A15.172,15.172 0 0 1 144.988,474.4976 C147.739,471.5306 151.122,470.3636 155.138,470.9976 " fill="#FDFDFD" style="stroke:;stroke-width:0.0;stroke-dasharray:;"/><path d="M155.138,470.9976 L172.638,470.9976 L161.438,474.6476 C161.382,474.6856 161.349,474.7356 161.338,474.7976 A11.02,11.02 0 0 0 155.138,470.9976 " fill="#E6B42C" style="stroke:;stroke-width:0.0;stroke-dasharray:;"/><path d="M172.638,470.9976 L173.038,470.9976 C175.49,475.8096 176.173,480.8766 175.088,486.1976 C173.38,493.2676 169.297,498.4516 162.838,501.7476 A22.36,22.36 0 0 1 151.938,503.8976 L152.138,503.4976 L160.738,488.6976 A27.003,27.003 0 0 0 162.088,486.8976 C164.358,482.6986 164.108,478.6656 161.338,474.7976 C161.349,474.7356 161.382,474.6856 161.438,474.6476 " fill="#FEC831" style="stroke:;stroke-width:0.0;stroke-dasharray:;"/><path d="M151.738,472.6976 C155.561,472.3846 158.511,473.8176 160.588,476.9976 C161.973,479.5996 162.106,482.2666 160.988,484.9976 C158.91,488.9116 155.66,490.5616 151.238,489.9476 C147.402,488.9446 145.118,486.4946 144.388,482.5976 C144.169,477.2976 146.619,473.9976 151.738,472.6976 " fill="#367BF0" style="stroke:;stroke-width:0.0;stroke-dasharray:;"/><path d="M160.738,488.6976 L152.138,503.4976 C152.076,503.4556 152.042,503.3896 152.038,503.2976 L154.438,491.8976 A11.44,11.44 0 0 0 160.738,488.6976 " fill="#139156" style="stroke:;stroke-width:0.0;stroke-dasharray:;"/><text fill="#000000" font-family="sans-serif" font-size="14" lengthAdjust="spacing" textLength="58" x="126" y="516.8857">Browser</text><rect fill="#E2E2F0" height="77.2969" rx="2.5" ry="2.5" style="stroke:#181818;stroke-width:0.5;" width="104" x="270" y="5"/><path d="M321.921,12 C319.966,12.009 318.099,12.176 316.457,12.467 C311.618,13.322 310.739,15.111 310.739,18.411 L310.739,22.769 L322.174,22.769 L322.174,24.221 L310.74,24.221 L306.448,24.221 C303.125,24.221 300.215,26.218 299.305,30.018 C298.255,34.373 298.208,37.092 299.305,41.639 C300.118,45.024 302.059,47.436 305.382,47.436 L309.314,47.436 L309.314,42.212 C309.314,38.437 312.579,35.109 316.457,35.109 L327.878,35.109 C331.057,35.109 333.595,32.491 333.595,29.298 L333.595,18.411 C333.595,15.312 330.981,12.984 327.878,12.467 C325.914,12.14 323.876,11.991 321.921,12 M315.737,15.505 C316.918,15.505 317.883,16.485 317.883,17.69 C317.883,18.895 316.918,19.862 315.737,19.862 C314.556,19.862 313.591,18.891 313.591,17.69 C313.591,16.489 314.552,15.505 315.737,15.505 " fill="#306998" style="stroke:;stroke-width:0.0;stroke-dasharray:;"/><path d="M335.022,24.222 L335.022,29.3 C335.022,33.237 331.685,36.55 327.879,36.55 L316.457,36.55 C313.329,36.55 310.74,39.227 310.74,42.361 L310.74,53.25 C310.74,56.349 313.435,58.172 316.457,59.061 C320.076,60.125 323.548,60.318 327.878,59.061 C330.757,58.228 333.595,56.55 333.595,53.25 L333.595,48.892 L322.174,48.892 L322.174,47.44 L333.595,47.44 L339.312,47.44 C342.635,47.44 343.873,45.122 345.029,41.643 C346.223,38.061 346.172,34.616 345.029,30.022 C344.208,26.714 342.639,24.225 339.312,24.225 M328.598,51.795 C329.783,51.795 330.744,52.766 330.744,53.967 C330.744,55.168 329.783,56.152 328.598,56.152 C327.413,56.152 326.452,55.172 326.452,53.967 C326.452,52.762 327.417,51.795 328.598,51.795 " fill="#FFD43B" style="stroke:;stroke-width:0.0;stroke-dasharray:;"/><text fill="#000000" font-family="sans-serif" font-size="14" lengthAdjust="spacing" textLength="90" x="277" y="71.9951">Service Web</text><rect fill="#E2E2F0" height="77.2969" rx="2.5" ry="2.5" style="stroke:#181818;stroke-width:0.5;" width="104" x="270" y="451.8906"/><path d="M321.921,458.8906 C319.966,458.8996 318.099,459.0666 316.457,459.3576 C311.618,460.2126 310.739,462.0016 310.739,465.3016 L310.739,469.6596 L322.174,469.6596 L322.174,471.1116 L310.74,471.1116 L306.448,471.1116 C303.125,471.1116 300.215,473.1086 299.305,476.9086 C298.255,481.2636 298.208,483.9826 299.305,488.5296 C300.118,491.9146 302.059,494.3266 305.382,494.3266 L309.314,494.3266 L309.314,489.1026 C309.314,485.3276 312.579,481.9996 316.457,481.9996 L327.878,481.9996 C331.057,481.9996 333.595,479.3816 333.595,476.1886 L333.595,465.3016 C333.595,462.2026 330.981,459.8746 327.878,459.3576 C325.914,459.0306 323.876,458.8816 321.921,458.8906 M315.737,462.3956 C316.918,462.3956 317.883,463.3756 317.883,464.5806 C317.883,465.7856 316.918,466.7526 315.737,466.7526 C314.556,466.7526 313.591,465.7816 313.591,464.5806 C313.591,463.3796 314.552,462.3956 315.737,462.3956 " fill="#306998" style="stroke:;stroke-width:0.0;stroke-dasharray:;"/><path d="M335.022,471.1126 L335.022,476.1906 C335.022,480.1276 331.685,483.4406 327.879,483.4406 L316.457,483.4406 C313.329,483.4406 310.74,486.1176 310.74,489.2516 L310.74,500.1406 C310.74,503.2396 313.435,505.0626 316.457,505.9516 C320.076,507.0156 323.548,507.2086 327.878,505.9516 C330.757,505.1186 333.595,503.4406 333.595,500.1406 L333.595,495.7826 L322.174,495.7826 L322.174,494.3306 L333.595,494.3306 L339.312,494.3306 C342.635,494.3306 343.873,492.0126 345.029,488.5336 C346.223,484.9516 346.172,481.5066 345.029,476.9126 C344.208,473.6046 342.639,471.1156 339.312,471.1156 M328.598,498.6856 C329.783,498.6856 330.744,499.6566 330.744,500.8576 C330.744,502.0586 329.783,503.0426 328.598,503.0426 C327.413,503.0426 326.452,502.0626 326.452,500.8576 C326.452,499.6526 327.417,498.6856 328.598,498.6856 " fill="#FFD43B" style="stroke:;stroke-width:0.0;stroke-dasharray:;"/><text fill="#000000" font-family="sans-serif" font-size="14" lengthAdjust="spacing" textLength="90" x="277" y="518.8857">Service Web</text><rect fill="#E2E2F0" height="69.2969" rx="2.5" ry="2.5" style="stroke:#181818;stroke-width:0.5;" width="58" x="384" y="13"/><path d="M396.795,29.868 L402.511,20.002 L425.53,19.999 L431.215,29.963 L431.222,49.895 L425.531,59.853 L402.519,59.861 L396.737,49.896 " fill="#4D4D4D" style="stroke:;stroke-width:0.0;stroke-dasharray:;"/><path d="M396.738,49.893 L407.112,49.893 L401.414,39.852 L406.048,29.87 L396.796,29.868 L391,39.933 " fill="#EDEDED" style="stroke:;stroke-width:0.0;stroke-dasharray:;"/><path d="M410.258,49.893 L417.841,49.893 L424.546,40.12 L417.958,29.964 L409.038,29.964 L403.665,39.778 " fill="#E0E0E0" style="stroke:;stroke-width:0.0;stroke-dasharray:;"/><path d="M391,39.932 L396.738,49.896 L407.113,49.896 L401.477,39.966 " fill="#ACACAC" style="stroke:;stroke-width:0.0;stroke-dasharray:;"/><path d="M403.774,39.934 L410.259,49.896 L417.841,49.896 L424.441,39.938 " fill="#9E9E9E" style="stroke:;stroke-width:0.0;stroke-dasharray:;"/><path d="M406.342,39.939 L404.385,40.509 L402.507,39.938 L410.174,26.648 L412.092,29.966 " fill="#00B8E3" style="stroke:;stroke-width:0.0;stroke-dasharray:;"/><path d="M412.084,49.893 L410.176,53.225 L405.083,47.738 L402.503,39.941 L402.503,39.937 L406.341,39.937 " fill="#33C6E9" style="stroke:;stroke-width:0.0;stroke-dasharray:;"/><path d="M402.508,39.938 L402.504,39.938 L402.504,39.941 L400.587,43.263 L398.662,39.956 L400.614,36.57 L406.342,26.65 L410.176,26.65 " fill="#008AAA" style="stroke:;stroke-width:0.0;stroke-dasharray:;"/><path d="M423.604,49.893 L435.216,49.893 L435.209,29.963 L423.604,29.963 " fill="#D4D4D4" style="stroke:;stroke-width:0.0;stroke-dasharray:;"/><path d="M423.604,39.965 L423.604,49.895 L435.195,49.895 L435.195,39.965 " fill="#919191" style="stroke:;stroke-width:0.0;stroke-dasharray:;"/><path d="M410.178,53.229 L406.341,53.229 L400.587,43.262 L402.504,39.942 " fill="#00B8E3" style="stroke:;stroke-width:0.0;stroke-dasharray:;"/><path d="M425.519,39.938 L417.85,53.226 C417.145,52.19 415.937,49.896 415.937,49.896 L421.69,39.936 " fill="#008AAA" style="stroke:;stroke-width:0.0;stroke-dasharray:;"/><path d="M421.68,53.226 L417.85,53.225 L425.52,39.937 L427.436,36.619 L429.358,39.959 M425.519,39.938 L421.691,39.938 L415.936,29.965 L417.841,26.651 L422.499,32.573 " fill="#00B8E3" style="stroke:;stroke-width:0.0;stroke-dasharray:;"/><path d="M427.436,36.617 L427.436,36.62 L425.519,39.938 L417.842,26.652 L421.683,26.654 " fill="#33C6E9" style="stroke:;stroke-width:0.0;stroke-dasharray:;"/><text fill="#000000" font-family="sans-serif" font-size="14" lengthAdjust="spacing" textLength="24" x="403" y="71.9951">IDP</text><rect fill="#E2E2F0" height="69.2969" rx="2.5" ry="2.5" style="stroke:#181818;stroke-width:0.5;" width="58" x="384" y="451.8906"/><path d="M396.795,468.7586 L402.511,458.8926 L425.53,458.8896 L431.215,468.8536 L431.222,488.7856 L425.531,498.7436 L402.519,498.7516 L396.737,488.7866 " fill="#4D4D4D" style="stroke:;stroke-width:0.0;stroke-dasharray:;"/><path d="M396.738,488.7836 L407.112,488.7836 L401.414,478.7426 L406.048,468.7606 L396.796,468.7586 L391,478.8236 " fill="#EDEDED" style="stroke:;stroke-width:0.0;stroke-dasharray:;"/><path d="M410.258,488.7836 L417.841,488.7836 L424.546,479.0106 L417.958,468.8546 L409.038,468.8546 L403.665,478.6686 " fill="#E0E0E0" style="stroke:;stroke-width:0.0;stroke-dasharray:;"/><path d="M391,478.8226 L396.738,488.7866 L407.113,488.7866 L401.477,478.8566 " fill="#ACACAC" style="stroke:;stroke-width:0.0;stroke-dasharray:;"/><path d="M403.774,478.8246 L410.259,488.7866 L417.841,488.7866 L424.441,478.8286 " fill="#9E9E9E" style="stroke:;stroke-width:0.0;stroke-dasharray:;"/><path d="M406.342,478.8296 L404.385,479.3996 L402.507,478.8286 L410.174,465.5386 L412.092,468.8566 " fill="#00B8E3" style="stroke:;stroke-width:0.0;stroke-dasharray:;"/><path d="M412.084,488.7836 L410.176,492.1156 L405.083,486.6286 L402.503,478.8316 L402.503,478.8276 L406.341,478.8276 " fill="#33C6E9" style="stroke:;stroke-width:0.0;stroke-dasharray:;"/><path d="M402.508,478.8286 L402.504,478.8286 L402.504,478.8316 L400.587,482.1536 L398.662,478.8466 L400.614,475.4606 L406.342,465.5406 L410.176,465.5406 " fill="#008AAA" style="stroke:;stroke-width:0.0;stroke-dasharray:;"/><path d="M423.604,488.7836 L435.216,488.7836 L435.209,468.8536 L423.604,468.8536 " fill="#D4D4D4" style="stroke:;stroke-width:0.0;stroke-dasharray:;"/><path d="M423.604,478.8556 L423.604,488.7856 L435.195,488.7856 L435.195,478.8556 " fill="#919191" style="stroke:;stroke-width:0.0;stroke-dasharray:;"/><path d="M410.178,492.1196 L406.341,492.1196 L400.587,482.1526 L402.504,478.8326 " fill="#00B8E3" style="stroke:;stroke-width:0.0;stroke-dasharray:;"/><path d="M425.519,478.8286 L417.85,492.1166 C417.145,491.0806 415.937,488.7866 415.937,488.7866 L421.69,478.8266 " fill="#008AAA" style="stroke:;stroke-width:0.0;stroke-dasharray:;"/><path d="M421.68,492.1166 L417.85,492.1156 L425.52,478.8276 L427.436,475.5096 L429.358,478.8496 M425.519,478.8286 L421.691,478.8286 L415.936,468.8556 L417.841,465.5416 L422.499,471.4636 " fill="#00B8E3" style="stroke:;stroke-width:0.0;stroke-dasharray:;"/><path d="M427.436,475.5076 L427.436,475.5106 L425.519,478.8286 L417.842,465.5426 L421.683,465.5446 " fill="#33C6E9" style="stroke:;stroke-width:0.0;stroke-dasharray:;"/><text fill="#000000" font-family="sans-serif" font-size="14" lengthAdjust="spacing" textLength="24" x="403" y="510.8857">IDP</text><rect fill="#FFFFFF" height="350.5938" style="stroke:#181818;stroke-width:1.0;" width="10" x="18" y="93.2969"/><rect fill="#FFFFFF" height="145.6641" style="stroke:#181818;stroke-width:1.0;" width="10" x="148" y="114.4297"/><rect fill="#FFFFFF" height="145.6641" style="stroke:#181818;stroke-width:1.0;" width="10" x="148" y="289.2266"/><rect fill="#FFFFFF" height="29.1328" style="stroke:#181818;stroke-width:1.0;" width="10" x="317" y="143.5625"/><rect fill="#FFFFFF" height="29.1328" style="stroke:#181818;stroke-width:1.0;" width="10" x="317" y="376.625"/><rect fill="#FFFFFF" height="29.1328" style="stroke:#181818;stroke-width:1.0;" width="10" x="408" y="201.8281"/><rect fill="#FFFFFF" height="29.1328" style="stroke:#181818;stroke-width:1.0;" width="10" x="408" y="318.3594"/><polygon fill="#181818" points="136,110.4297,146,114.4297,136,118.4297,140,114.4297" style="stroke:#181818;stroke-width:1.0;"/><line style="stroke:#181818;stroke-width:1.0;" x1="28" x2="142" y1="114.4297" y2="114.4297"/><text fill="#000000" font-family="sans-serif" font-size="13" font-weight="bold" lengthAdjust="spacing" textLength="9" x="35" y="109.3638">1</text><text fill="#000000" font-family="sans-serif" font-size="13" lengthAdjust="spacing" textLength="62" x="48" y="109.3638">accesURL</text><polygon fill="#181818" points="305,139.5625,315,143.5625,305,147.5625,309,143.5625" style="stroke:#181818;stroke-width:1.0;"/><line style="stroke:#181818;stroke-width:1.0;" x1="158" x2="311" y1="143.5625" y2="143.5625"/><text fill="#000000" font-family="sans-serif" font-size="13" font-weight="bold" lengthAdjust="spacing" textLength="9" x="165" y="138.4966">2</text><text fill="#000000" font-family="sans-serif" font-size="13" lengthAdjust="spacing" textLength="77" x="178" y="138.4966">requeteHttp</text><polygon fill="#181818" points="169,168.6953,159,172.6953,169,176.6953,165,172.6953" style="stroke:#181818;stroke-width:1.0;"/><line style="stroke:#181818;stroke-width:1.0;stroke-dasharray:2.0,2.0;" x1="163" x2="321" y1="172.6953" y2="172.6953"/><text fill="#000000" font-family="sans-serif" font-size="13" font-weight="bold" lengthAdjust="spacing" textLength="9" x="175" y="167.6294">3</text><text fill="#000000" font-family="sans-serif" font-size="13" lengthAdjust="spacing" textLength="97" x="188" y="167.6294">redirectHttpIDP</text><polygon fill="#181818" points="396,197.8281,406,201.8281,396,205.8281,400,201.8281" style="stroke:#181818;stroke-width:1.0;"/><line style="stroke:#181818;stroke-width:1.0;" x1="158" x2="402" y1="201.8281" y2="201.8281"/><text fill="#000000" font-family="sans-serif" font-size="13" font-weight="bold" lengthAdjust="spacing" textLength="9" x="165" y="196.7622">4</text><text fill="#000000" font-family="sans-serif" font-size="13" lengthAdjust="spacing" textLength="77" x="178" y="196.7622">requeteHttp</text><polygon fill="#181818" points="169,226.9609,159,230.9609,169,234.9609,165,230.9609" style="stroke:#181818;stroke-width:1.0;"/><line style="stroke:#181818;stroke-width:1.0;stroke-dasharray:2.0,2.0;" x1="163" x2="412" y1="230.9609" y2="230.9609"/><text fill="#000000" font-family="sans-serif" font-size="13" font-weight="bold" lengthAdjust="spacing" textLength="9" x="175" y="225.895">5</text><text fill="#000000" font-family="sans-serif" font-size="13" lengthAdjust="spacing" textLength="59" x="188" y="225.895">mireHtml</text><polygon fill="#181818" points="39,256.0938,29,260.0938,39,264.0938,35,260.0938" style="stroke:#181818;stroke-width:1.0;"/><line style="stroke:#181818;stroke-width:1.0;stroke-dasharray:2.0,2.0;" x1="33" x2="152" y1="260.0938" y2="260.0938"/><text fill="#000000" font-family="sans-serif" font-size="13" font-weight="bold" lengthAdjust="spacing" textLength="9" x="45" y="255.0278">6</text><text fill="#000000" font-family="sans-serif" font-size="13" lengthAdjust="spacing" textLength="75" x="58" y="255.0278">dessineMire</text><polygon fill="#181818" points="136,285.2266,146,289.2266,136,293.2266,140,289.2266" style="stroke:#181818;stroke-width:1.0;"/><line style="stroke:#181818;stroke-width:1.0;" x1="28" x2="142" y1="289.2266" y2="289.2266"/><text fill="#000000" font-family="sans-serif" font-size="13" font-weight="bold" lengthAdjust="spacing" textLength="9" x="35" y="284.1606">7</text><text fill="#000000" font-family="sans-serif" font-size="13" lengthAdjust="spacing" textLength="70" x="48" y="284.1606">credentials</text><polygon fill="#181818" points="396,314.3594,406,318.3594,396,322.3594,400,318.3594" style="stroke:#181818;stroke-width:1.0;"/><line style="stroke:#181818;stroke-width:1.0;" x1="158" x2="402" y1="318.3594" y2="318.3594"/><text fill="#000000" font-family="sans-serif" font-size="13" font-weight="bold" lengthAdjust="spacing" textLength="9" x="165" y="313.2935">8</text><text fill="#000000" font-family="sans-serif" font-size="13" lengthAdjust="spacing" textLength="29" x="178" y="313.2935">auth</text><polygon fill="#181818" points="169,343.4922,159,347.4922,169,351.4922,165,347.4922" style="stroke:#181818;stroke-width:1.0;"/><line style="stroke:#181818;stroke-width:1.0;stroke-dasharray:2.0,2.0;" x1="163" x2="412" y1="347.4922" y2="347.4922"/><text fill="#000000" font-family="sans-serif" font-size="13" font-weight="bold" lengthAdjust="spacing" textLength="9" x="175" y="342.4263">9</text><text fill="#000000" font-family="sans-serif" font-size="13" lengthAdjust="spacing" textLength="101" x="188" y="342.4263">redirectHttpAPP</text><polygon fill="#181818" points="305,372.625,315,376.625,305,380.625,309,376.625" style="stroke:#181818;stroke-width:1.0;"/><line style="stroke:#181818;stroke-width:1.0;" x1="158" x2="311" y1="376.625" y2="376.625"/><text fill="#000000" font-family="sans-serif" font-size="13" font-weight="bold" lengthAdjust="spacing" textLength="18" x="165" y="371.5591">10</text><text fill="#000000" font-family="sans-serif" font-size="13" lengthAdjust="spacing" textLength="118" x="187" y="371.5591">requeteHttp-token</text><polygon fill="#181818" points="169,401.7578,159,405.7578,169,409.7578,165,405.7578" style="stroke:#181818;stroke-width:1.0;"/><line style="stroke:#181818;stroke-width:1.0;stroke-dasharray:2.0,2.0;" x1="163" x2="321" y1="405.7578" y2="405.7578"/><text fill="#000000" font-family="sans-serif" font-size="13" font-weight="bold" lengthAdjust="spacing" textLength="18" x="175" y="400.6919">11</text><text fill="#000000" font-family="sans-serif" font-size="13" lengthAdjust="spacing" textLength="82" x="197" y="400.6919">reponseHtml</text><polygon fill="#181818" points="39,430.8906,29,434.8906,39,438.8906,35,434.8906" style="stroke:#181818;stroke-width:1.0;"/><line style="stroke:#181818;stroke-width:1.0;stroke-dasharray:2.0,2.0;" x1="33" x2="152" y1="434.8906" y2="434.8906"/><text fill="#000000" font-family="sans-serif" font-size="13" font-weight="bold" lengthAdjust="spacing" textLength="18" x="45" y="429.8247">12</text><text fill="#000000" font-family="sans-serif" font-size="13" lengthAdjust="spacing" textLength="74" x="67" y="429.8247">dessineAPP</text><!--SRC=[ZP31JeGm48RlFCMuyOeFGCmc6WzheWdH62zUIfb80xHrEiNmzauNLbPCK0v0cszcldykZDLTh17wCG-U3EELZtsNPKgp8vYU690ohuYDDbvPXjtrvNkk6t8zxjyit9Bx56G7Aa0r_QznFtBZhC3FI8FH2AzO7NbX1wIRibnNcDhdBOwwSwfDG-xlohC2EObZP6TZNycuv6i6nJZ9fXVa-vDD0Kfh32zF3mjt4fs_YVvsAO3m8oBZWTal9Oih8KUoGjM6K7F2aj6lNdAvsIiLpRrwwNHWMVryXXf3C1OVvJxBrecW02tJqR9HNVX7ggE9BApPK3YFarB-kPgSNOjsSq7UsV0ZrnnBe2y0]--></g></svg>