<svg xmlns="http://www.w3.org/2000/svg" xmlns:xlink="http://www.w3.org/1999/xlink" contentStyleType="text/css" height="727px" preserveAspectRatio="none" style="width:751px;height:727px;background:#FFFFFF;" version="1.1" viewBox="0 0 751 727" width="751px" zoomAndPan="magnify"><title>C4 Context System Messages</title><defs/><g><text fill="#000000" font-family="sans-serif" font-size="14" font-weight="bold" lengthAdjust="spacing" textLength="198.4131" x="269.4536" y="25.1074">C4 Context System Messages</text><!--entity user--><g id="elem_user"><rect fill="#08427B" height="128.5234" rx="2.5" ry="2.5" style="stroke:#073B6F;stroke-width:0.5;" width="184.9648" x="87" y="93.1328"/><path d="M179.4824,128.0228 C173.4524,128.0228 168.0824,122.9828 168.0824,115.2628 C168.0824,109.2728 172.6224,103.1328 179.2724,103.1328 C185.7624,103.1328 190.5124,109.0728 190.5124,115.5528 C190.5124,123.0428 184.9124,128.0228 179.4824,128.0228 M156.4824,153.1328 C157.0024,147.6128 157.7024,140.0728 159.0224,136.2628 C159.6324,134.5328 160.5224,133.2928 161.9524,132.2528 C162.8824,131.5628 166.1824,129.7428 166.7924,129.4428 C167.8524,128.8928 168.9424,128.6028 169.8824,129.4428 C175.4824,134.3928 183.2224,134.2428 188.9024,129.4628 C189.5624,128.7828 190.6024,128.9628 191.2924,129.2328 C192.3824,129.6528 195.8624,131.7028 196.5224,132.1228 C198.4424,133.3828 199.4824,135.0628 200.2524,138.2228 C201.2324,142.4928 201.8124,147.9228 202.4824,153.1328 " fill="#CCCBCB" style="stroke:;stroke-width:0.0;stroke-dasharray:;"/><text fill="#FFFFFF" font-family="sans-serif" font-size="16" font-weight="bold" lengthAdjust="spacing" textLength="35.5781" x="161.6934" y="170.3984">User</text><text fill="#FFFFFF" font-family="sans-serif" font-size="14" lengthAdjust="spacing" textLength="3.8896" x="177.5376" y="189.5215">&#160;</text><text fill="#FFFFFF" font-family="sans-serif" font-size="14" lengthAdjust="spacing" textLength="33.4688" x="97" y="208.1426">Read</text><text fill="#FFFFFF" font-family="sans-serif" font-size="14" lengthAdjust="spacing" textLength="3.8896" x="130.4688" y="208.1426">&#160;</text><text fill="#FFFFFF" font-family="sans-serif" font-size="14" lengthAdjust="spacing" textLength="23.3584" x="134.3584" y="208.1426">and</text><text fill="#FFFFFF" font-family="sans-serif" font-size="14" lengthAdjust="spacing" textLength="3.8896" x="157.7168" y="208.1426">&#160;</text><text fill="#FFFFFF" font-family="sans-serif" font-size="14" lengthAdjust="spacing" textLength="32.6621" x="161.6064" y="208.1426">Write</text><text fill="#FFFFFF" font-family="sans-serif" font-size="14" lengthAdjust="spacing" textLength="3.8896" x="194.2686" y="208.1426">&#160;</text><text fill="#FFFFFF" font-family="sans-serif" font-size="14" lengthAdjust="spacing" textLength="63.8066" x="198.1582" y="208.1426">Messages</text></g><!--entity moderator--><g id="elem_moderator"><rect fill="#08427B" height="128.5234" rx="2.5" ry="2.5" style="stroke:#073B6F;stroke-width:0.5;" width="136.7305" x="7" y="455.1328"/><path d="M75.3652,490.0228 C69.3352,490.0228 63.9652,484.9828 63.9652,477.2628 C63.9652,471.2728 68.5052,465.1328 75.1552,465.1328 C81.6452,465.1328 86.3952,471.0728 86.3952,477.5528 C86.3952,485.0428 80.7952,490.0228 75.3652,490.0228 M52.3652,515.1328 C52.8852,509.6128 53.5852,502.0728 54.9052,498.2628 C55.5152,496.5328 56.4052,495.2928 57.8352,494.2528 C58.7652,493.5628 62.0652,491.7428 62.6752,491.4428 C63.7352,490.8928 64.8252,490.6028 65.7652,491.4428 C71.3652,496.3928 79.1052,496.2428 84.7852,491.4628 C85.4452,490.7828 86.4852,490.9628 87.1752,491.2328 C88.2652,491.6528 91.7452,493.7028 92.4052,494.1228 C94.3252,495.3828 95.3652,497.0628 96.1352,500.2228 C97.1152,504.4928 97.6952,509.9228 98.3652,515.1328 " fill="#CCCBCB" style="stroke:;stroke-width:0.0;stroke-dasharray:;"/><text fill="#FFFFFF" font-family="sans-serif" font-size="16" font-weight="bold" lengthAdjust="spacing" textLength="78.2266" x="36.252" y="532.3984">Moderator</text><text fill="#FFFFFF" font-family="sans-serif" font-size="14" lengthAdjust="spacing" textLength="3.8896" x="73.4204" y="551.5215">&#160;</text><text fill="#FFFFFF" font-family="sans-serif" font-size="14" lengthAdjust="spacing" textLength="49.0342" x="17" y="570.1426">Content</text><text fill="#FFFFFF" font-family="sans-serif" font-size="14" lengthAdjust="spacing" textLength="3.8896" x="66.0342" y="570.1426">&#160;</text><text fill="#FFFFFF" font-family="sans-serif" font-size="14" lengthAdjust="spacing" textLength="63.8066" x="69.9238" y="570.1426">moderator</text></g><!--entity admin--><g id="elem_admin"><rect fill="#08427B" height="128.5234" rx="2.5" ry="2.5" style="stroke:#073B6F;stroke-width:0.5;" width="209.8545" x="179.5" y="455.1328"/><path d="M284.4272,490.0228 C278.3972,490.0228 273.0272,484.9828 273.0272,477.2628 C273.0272,471.2728 277.5672,465.1328 284.2172,465.1328 C290.7072,465.1328 295.4572,471.0728 295.4572,477.5528 C295.4572,485.0428 289.8572,490.0228 284.4272,490.0228 M261.4272,515.1328 C261.9472,509.6128 262.6472,502.0728 263.9672,498.2628 C264.5772,496.5328 265.4672,495.2928 266.8972,494.2528 C267.8272,493.5628 271.1272,491.7428 271.7372,491.4428 C272.7972,490.8928 273.8872,490.6028 274.8272,491.4428 C280.4272,496.3928 288.1672,496.2428 293.8472,491.4628 C294.5072,490.7828 295.5472,490.9628 296.2372,491.2328 C297.3272,491.6528 300.8072,493.7028 301.4672,494.1228 C303.3872,495.3828 304.4272,497.0628 305.1972,500.2228 C306.1772,504.4928 306.7572,509.9228 307.4272,515.1328 " fill="#CCCBCB" style="stroke:;stroke-width:0.0;stroke-dasharray:;"/><text fill="#FFFFFF" font-family="sans-serif" font-size="16" font-weight="bold" lengthAdjust="spacing" textLength="104.8984" x="231.978" y="532.3984">Administrator</text><text fill="#FFFFFF" font-family="sans-serif" font-size="14" lengthAdjust="spacing" textLength="3.8896" x="282.4824" y="551.5215">&#160;</text><text fill="#FFFFFF" font-family="sans-serif" font-size="14" lengthAdjust="spacing" textLength="77.8066" x="189.5" y="570.1426">Administrate</text><text fill="#FFFFFF" font-family="sans-serif" font-size="14" lengthAdjust="spacing" textLength="3.8896" x="267.3066" y="570.1426">&#160;</text><text fill="#FFFFFF" font-family="sans-serif" font-size="14" lengthAdjust="spacing" textLength="23.3379" x="271.1963" y="570.1426">IDP</text><text fill="#FFFFFF" font-family="sans-serif" font-size="14" lengthAdjust="spacing" textLength="3.8896" x="294.5342" y="570.1426">&#160;</text><text fill="#FFFFFF" font-family="sans-serif" font-size="14" lengthAdjust="spacing" textLength="23.3584" x="298.4238" y="570.1426">and</text><text fill="#FFFFFF" font-family="sans-serif" font-size="14" lengthAdjust="spacing" textLength="3.8896" x="321.7822" y="570.1426">&#160;</text><text fill="#FFFFFF" font-family="sans-serif" font-size="14" lengthAdjust="spacing" textLength="53.6826" x="325.6719" y="570.1426">Services</text></g><!--entity system--><g id="elem_system"><rect fill="#1168BD" height="78.5234" rx="2.5" ry="2.5" style="stroke:#3C7FC0;stroke-width:0.5;" width="146.2813" x="106.5" y="299.1328"/><text fill="#FFFFFF" font-family="sans-serif" font-size="16" font-weight="bold" lengthAdjust="spacing" textLength="56.9219" x="116.5" y="326.3984">System</text><text fill="#FFFFFF" font-family="sans-serif" font-size="16" font-weight="bold" lengthAdjust="spacing" textLength="4.4453" x="173.4219" y="326.3984">&#160;</text><text fill="#FFFFFF" font-family="sans-serif" font-size="16" font-weight="bold" lengthAdjust="spacing" textLength="64.9141" x="177.8672" y="326.3984">Provider</text><text fill="#FFFFFF" font-family="sans-serif" font-size="14" lengthAdjust="spacing" textLength="3.8896" x="177.6958" y="345.5215">&#160;</text><text fill="#FFFFFF" font-family="sans-serif" font-size="14" lengthAdjust="spacing" textLength="46.6758" x="128.2925" y="364.1426">System</text><text fill="#FFFFFF" font-family="sans-serif" font-size="14" lengthAdjust="spacing" textLength="3.8896" x="174.9683" y="364.1426">&#160;</text><text fill="#FFFFFF" font-family="sans-serif" font-size="14" lengthAdjust="spacing" textLength="52.1309" x="178.8579" y="364.1426">Provider</text></g><!--entity webse--><g id="elem_webse"><rect fill="#999999" height="78.5234" rx="2.5" ry="2.5" style="stroke:#8A8A8A;stroke-width:0.5;" width="165.8203" x="579.5" y="118.1328"/><text fill="#FFFFFF" font-family="sans-serif" font-size="16" font-weight="bold" lengthAdjust="spacing" textLength="33.7734" x="589.5" y="145.3984">Web</text><text fill="#FFFFFF" font-family="sans-serif" font-size="16" font-weight="bold" lengthAdjust="spacing" textLength="4.4453" x="623.2734" y="145.3984">&#160;</text><text fill="#FFFFFF" font-family="sans-serif" font-size="16" font-weight="bold" lengthAdjust="spacing" textLength="51.5938" x="627.7188" y="145.3984">search</text><text fill="#FFFFFF" font-family="sans-serif" font-size="16" font-weight="bold" lengthAdjust="spacing" textLength="4.4453" x="679.3125" y="145.3984">&#160;</text><text fill="#FFFFFF" font-family="sans-serif" font-size="16" font-weight="bold" lengthAdjust="spacing" textLength="51.5625" x="683.7578" y="145.3984">engine</text><text fill="#FFFFFF" font-family="sans-serif" font-size="14" lengthAdjust="spacing" textLength="3.8896" x="660.4653" y="164.5215">&#160;</text><text fill="#FFFFFF" font-family="sans-serif" font-size="14" lengthAdjust="spacing" textLength="28.7861" x="600.1519" y="183.1426">Web</text><text fill="#FFFFFF" font-family="sans-serif" font-size="14" lengthAdjust="spacing" textLength="3.8896" x="628.938" y="183.1426">&#160;</text><text fill="#FFFFFF" font-family="sans-serif" font-size="14" lengthAdjust="spacing" textLength="44.3584" x="632.8276" y="183.1426">Search</text><text fill="#FFFFFF" font-family="sans-serif" font-size="14" lengthAdjust="spacing" textLength="3.8896" x="677.186" y="183.1426">&#160;</text><text fill="#FFFFFF" font-family="sans-serif" font-size="14" lengthAdjust="spacing" textLength="43.5928" x="681.0757" y="183.1426">Engine</text></g><!--entity store--><g id="elem_store"><rect fill="#999999" height="78.5234" rx="2.5" ry="2.5" style="stroke:#8A8A8A;stroke-width:0.5;" width="203.6543" x="340.5" y="118.1328"/><text fill="#FFFFFF" font-family="sans-serif" font-size="16" font-weight="bold" lengthAdjust="spacing" textLength="51.5938" x="394.7451" y="145.3984">Device</text><text fill="#FFFFFF" font-family="sans-serif" font-size="16" font-weight="bold" lengthAdjust="spacing" textLength="4.4453" x="446.3389" y="145.3984">&#160;</text><text fill="#FFFFFF" font-family="sans-serif" font-size="16" font-weight="bold" lengthAdjust="spacing" textLength="39.125" x="450.7842" y="145.3984">store</text><text fill="#FFFFFF" font-family="sans-serif" font-size="14" lengthAdjust="spacing" textLength="3.8896" x="440.3823" y="164.5215">&#160;</text><text fill="#FFFFFF" font-family="sans-serif" font-size="14" lengthAdjust="spacing" textLength="42.793" x="350.5" y="183.1426">Device</text><text fill="#FFFFFF" font-family="sans-serif" font-size="14" lengthAdjust="spacing" textLength="3.8896" x="393.293" y="183.1426">&#160;</text><text fill="#FFFFFF" font-family="sans-serif" font-size="14" lengthAdjust="spacing" textLength="35.0137" x="397.1826" y="183.1426">store,</text><text fill="#FFFFFF" font-family="sans-serif" font-size="14" lengthAdjust="spacing" textLength="3.8896" x="432.1963" y="183.1426">&#160;</text><text fill="#FFFFFF" font-family="sans-serif" font-size="14" lengthAdjust="spacing" textLength="45.1445" x="436.0859" y="183.1426">Google</text><text fill="#FFFFFF" font-family="sans-serif" font-size="14" lengthAdjust="spacing" textLength="3.8896" x="481.2305" y="183.1426">&#160;</text><text fill="#FFFFFF" font-family="sans-serif" font-size="14" lengthAdjust="spacing" textLength="9.3379" x="485.1201" y="183.1426">&amp;</text><text fill="#FFFFFF" font-family="sans-serif" font-size="14" lengthAdjust="spacing" textLength="3.8896" x="494.458" y="183.1426">&#160;</text><text fill="#FFFFFF" font-family="sans-serif" font-size="14" lengthAdjust="spacing" textLength="35.8066" x="498.3477" y="183.1426">Apple</text></g><!--link user to system--><g id="link_user_system"><path d="M179.5,222.2428 C179.5,247.8728 179.5,270.5928 179.5,292.9728 " fill="none" id="user-to-system" style="stroke:#666666;stroke-width:1.0;"/><polygon fill="#666666" points="179.5,298.9728,183.5,289.9728,179.5,293.9728,175.5,289.9728,179.5,298.9728" style="stroke:#666666;stroke-width:1.0;"/><text fill="#666666" font-family="sans-serif" font-size="12" lengthAdjust="spacing" textLength="26.0156" x="180.5" y="266.082">https</text></g><!--link user to webse--><g id="link_user_webse"><path d="M272.08,108.8728 C313.48,90.0128 363.66,71.0628 411.5,63.1328 C479,51.9428 499.64,66.1028 562.5,93.1328 C578.06,99.8228 588.8647,105.6111 603.2247,114.7911 " fill="none" id="user-to-webse" style="stroke:#666666;stroke-width:1.0;"/><polygon fill="#666666" points="608.28,118.0228,602.8515,109.805,604.0673,115.3297,598.5426,116.5454,608.28,118.0228" style="stroke:#666666;stroke-width:1.0;"/><text fill="#666666" font-family="sans-serif" font-size="12" lengthAdjust="spacing" textLength="26.0156" x="412.5" y="60.082">https</text></g><!--link user to store--><g id="link_user_store"><path d="M272.22,157.6328 C294.26,157.6328 311.89,157.6328 334.32,157.6328 " fill="none" id="user-to-store" style="stroke:#666666;stroke-width:1.0;"/><polygon fill="#666666" points="340.32,157.6328,331.32,153.6328,335.32,157.6328,331.32,161.6328,340.32,157.6328" style="stroke:#666666;stroke-width:1.0;"/><text fill="#666666" font-family="sans-serif" font-size="12" lengthAdjust="spacing" textLength="32.0215" x="290.25" y="151.582">native</text></g><!--reverse link system to moderator--><g id="link_system_moderator"><path d="M153.9162,383.661 C140.9562,405.971 127.37,429.3628 112.54,454.8828 " fill="none" id="system-backto-moderator" style="stroke:#666666;stroke-width:1.0;"/><polygon fill="#666666" points="156.93,378.4728,148.9505,384.2458,154.4185,382.7963,155.868,388.2642,156.93,378.4728" style="stroke:#666666;stroke-width:1.0;"/><text fill="#666666" font-family="sans-serif" font-size="12" lengthAdjust="spacing" textLength="26.0156" x="138.5" y="422.082">https</text></g><!--reverse link system to admin--><g id="link_system_admin"><path d="M205.3163,383.6478 C218.4063,405.9578 232.13,429.3628 247.11,454.8828 " fill="none" id="system-backto-admin" style="stroke:#666666;stroke-width:1.0;"/><polygon fill="#666666" points="202.28,378.4728,203.3845,388.2595,204.8103,382.7853,210.2845,384.2111,202.28,378.4728" style="stroke:#666666;stroke-width:1.0;"/><text fill="#666666" font-family="sans-serif" font-size="12" lengthAdjust="spacing" textLength="26.0156" x="230.5" y="422.082">https</text></g><text fill="#000000" font-family="sans-serif" font-size="14" font-weight="bold" lengthAdjust="spacing" textLength="112.793" x="603.6377" y="622.7637">C4model Legend</text><text fill="#FFFFFF" font-family="sans-serif" font-size="14" lengthAdjust="spacing" textLength="3.8896" x="716.4307" y="622.7637">&#160;</text><rect fill="#08427B" height="18.6211" style="stroke:none;stroke-width:1.0;" width="116.6826" x="603.6377" y="626.2773"/><text fill="#FFFFFF" font-family="sans-serif" font-size="14" lengthAdjust="spacing" textLength="42.8066" x="607.5273" y="641.3848">person</text><rect fill="#1168BD" height="18.6211" style="stroke:none;stroke-width:1.0;" width="116.6826" x="603.6377" y="644.8984"/><text fill="#FFFFFF" font-family="sans-serif" font-size="14" lengthAdjust="spacing" textLength="44.3379" x="607.5273" y="660.0059">system</text><rect fill="#686868" height="18.6211" style="stroke:none;stroke-width:1.0;" width="116.6826" x="603.6377" y="663.5195"/><text fill="#FFFFFF" font-family="sans-serif" font-size="14" lengthAdjust="spacing" textLength="96.5029" x="607.5273" y="678.627">external person</text><rect fill="#999999" height="18.6211" style="stroke:none;stroke-width:1.0;" width="116.6826" x="603.6377" y="682.1406"/><text fill="#FFFFFF" font-family="sans-serif" font-size="14" lengthAdjust="spacing" textLength="98.0342" x="607.5273" y="697.248">external system</text><line style="stroke:#FFFFFF;stroke-width:1.0;" x1="603.6377" x2="720.3203" y1="607.6563" y2="607.6563"/><line style="stroke:#FFFFFF;stroke-width:1.0;" x1="603.6377" x2="720.3203" y1="626.2773" y2="626.2773"/><line style="stroke:#FFFFFF;stroke-width:1.0;" x1="603.6377" x2="720.3203" y1="644.8984" y2="644.8984"/><line style="stroke:#FFFFFF;stroke-width:1.0;" x1="603.6377" x2="720.3203" y1="663.5195" y2="663.5195"/><line style="stroke:#FFFFFF;stroke-width:1.0;" x1="603.6377" x2="720.3203" y1="682.1406" y2="682.1406"/><line style="stroke:#FFFFFF;stroke-width:1.0;" x1="603.6377" x2="720.3203" y1="700.7617" y2="700.7617"/><line style="stroke:#FFFFFF;stroke-width:1.0;" x1="603.6377" x2="603.6377" y1="607.6563" y2="700.7617"/><line style="stroke:#FFFFFF;stroke-width:1.0;" x1="720.3203" x2="720.3203" y1="607.6563" y2="700.7617"/><!--SRC=[RLB1JW8n4BttAyOU599TzkB9Wma1H1DG8XBYYPJTSMdijfjs5lJlRRihYdZPjc_cpNjztIkua3fNJO6m8whTJPPPSHYKadRDjd5eSwC9DGroKsMr4fgQIgME2YMtsUWwNGHeDPzbbN24raERKM1yqA3sdUmA6ksfbHy1j4DuCqgPWzGbAAaHX2xWf2ojypi3NXgKoOLId-peSF1RCRqpzlt7oQaicmrVdrOlc_N3o_rcDfbE7iUzFcCaII6Chg5hXkMdTrt179qJ9Jh65cYTqRrmyuIl_9Sd_1b54PskhIGyDlF-TtTb2hI2ZAVClxSy0JvgiuDZ_OSYYahgX0_38Xt5AWJEBmJXORo8makqUvb7ITPQxhcuU49tXOKrUrbWrFqBzJlIPl91lGDk7VgcDMx1eR3v3b2N_Z5u1ovRSDA29rpdNGRk68CTY4V-vvp0r9ZIntm9mxfMOG8BSKAQtaBh6cxQdwt3Ro5wEaFZE8zgGNAFx9WYfCtvg1ZelvKl]--></g></svg>