<svg xmlns="http://www.w3.org/2000/svg" xmlns:xlink="http://www.w3.org/1999/xlink" contentStyleType="text/css" height="897px" preserveAspectRatio="none" style="width:686px;height:897px;background:#FFFFFF;" version="1.1" viewBox="0 0 686 897" width="686px" zoomAndPan="magnify"><title>C4 Container</title><defs/><g><text fill="#000000" font-family="sans-serif" font-size="14" font-weight="bold" lengthAdjust="spacing" textLength="87.124" x="292.8652" y="25.1074">C4 Container</text><!--cluster system--><g id="cluster_system"><rect fill="#1168BD" height="517" rx="2.5" ry="2.5" style="stroke:#3C7FC0;stroke-width:1.0;" width="577" x="7" y="199.6211"/><text fill="#FFFFFF" font-family="sans-serif" font-size="16" font-weight="bold" lengthAdjust="spacing" textLength="126.2813" x="232.3594" y="218.8867">System Provider</text></g><!--entity kc--><g id="elem_kc"><rect fill="#438DD5" height="96.2422" rx="2.5" ry="2.5" style="stroke:#3C7FC0;stroke-width:0.5;" width="130.0566" x="224" y="252.6211"/><path d="M272.8233,272.4891 L278.5393,262.6231 L301.5583,262.6201 L307.2433,272.5841 L307.2503,292.5161 L301.5593,302.4741 L278.5473,302.4821 L272.7653,292.5171 " fill="#4D4D4D" style="stroke:;stroke-width:0.0;stroke-dasharray:;"/><path d="M272.7663,292.5141 L283.1403,292.5141 L277.4423,282.4731 L282.0763,272.4911 L272.8243,272.4891 L267.0283,282.5541 " fill="#EDEDED" style="stroke:;stroke-width:0.0;stroke-dasharray:;"/><path d="M286.2863,292.5141 L293.8693,292.5141 L300.5743,282.7411 L293.9863,272.5851 L285.0663,272.5851 L279.6933,282.3991 " fill="#E0E0E0" style="stroke:;stroke-width:0.0;stroke-dasharray:;"/><path d="M267.0283,282.5531 L272.7663,292.5171 L283.1413,292.5171 L277.5053,282.5871 " fill="#ACACAC" style="stroke:;stroke-width:0.0;stroke-dasharray:;"/><path d="M279.8023,282.5551 L286.2873,292.5171 L293.8693,292.5171 L300.4693,282.5591 " fill="#9E9E9E" style="stroke:;stroke-width:0.0;stroke-dasharray:;"/><path d="M282.3703,282.5601 L280.4133,283.1301 L278.5353,282.5591 L286.2023,269.2691 L288.1203,272.5871 " fill="#00B8E3" style="stroke:;stroke-width:0.0;stroke-dasharray:;"/><path d="M288.1123,292.5141 L286.2043,295.8461 L281.1113,290.3591 L278.5313,282.5621 L278.5313,282.5581 L282.3693,282.5581 " fill="#33C6E9" style="stroke:;stroke-width:0.0;stroke-dasharray:;"/><path d="M278.5363,282.5591 L278.5323,282.5591 L278.5323,282.5621 L276.6153,285.8841 L274.6903,282.5771 L276.6423,279.1911 L282.3703,269.2711 L286.2043,269.2711 " fill="#008AAA" style="stroke:;stroke-width:0.0;stroke-dasharray:;"/><path d="M299.6323,292.5141 L311.2443,292.5141 L311.2373,272.5841 L299.6323,272.5841 " fill="#D4D4D4" style="stroke:;stroke-width:0.0;stroke-dasharray:;"/><path d="M299.6323,282.5861 L299.6323,292.5161 L311.2233,292.5161 L311.2233,282.5861 " fill="#919191" style="stroke:;stroke-width:0.0;stroke-dasharray:;"/><path d="M286.2063,295.8501 L282.3693,295.8501 L276.6153,285.8831 L278.5323,282.5631 " fill="#00B8E3" style="stroke:;stroke-width:0.0;stroke-dasharray:;"/><path d="M301.5473,282.5591 L293.8783,295.8471 C293.1733,294.8111 291.9653,292.5171 291.9653,292.5171 L297.7183,282.5571 " fill="#008AAA" style="stroke:;stroke-width:0.0;stroke-dasharray:;"/><path d="M297.7083,295.8471 L293.8783,295.8461 L301.5483,282.5581 L303.4643,279.2401 L305.3863,282.5801 M301.5473,282.5591 L297.7193,282.5591 L291.9643,272.5861 L293.8693,269.2721 L298.5273,275.1941 " fill="#00B8E3" style="stroke:;stroke-width:0.0;stroke-dasharray:;"/><path d="M303.4643,279.2381 L303.4643,279.2411 L301.5473,282.5591 L293.8703,269.2731 L297.7113,269.2751 " fill="#33C6E9" style="stroke:;stroke-width:0.0;stroke-dasharray:;"/><text fill="#FFFFFF" font-family="sans-serif" font-size="16" font-weight="bold" lengthAdjust="spacing" textLength="70.2656" x="253.8955" y="318.8867">Keycloak</text><text fill="#FFFFFF" font-family="sans-serif" font-size="12" font-style="italic" lengthAdjust="spacing" textLength="45.3574" x="234" y="335.8516">[Identity,</text><text fill="#FFFFFF" font-family="sans-serif" font-size="12" font-style="italic" lengthAdjust="spacing" textLength="3.334" x="279.3574" y="335.8516">&#160;</text><text fill="#FFFFFF" font-family="sans-serif" font-size="12" font-style="italic" lengthAdjust="spacing" textLength="22.0137" x="282.6914" y="335.8516">web</text><text fill="#FFFFFF" font-family="sans-serif" font-size="12" font-style="italic" lengthAdjust="spacing" textLength="3.334" x="304.7051" y="335.8516">&#160;</text><text fill="#FFFFFF" font-family="sans-serif" font-size="12" font-style="italic" lengthAdjust="spacing" textLength="36.0176" x="308.0391" y="335.8516">admin]</text></g><!--entity front--><g id="elem_front"><rect fill="#438DD5" height="106.2422" rx="2.5" ry="2.5" style="stroke:#3C7FC0;stroke-width:0.5;" width="151.3613" x="389.5" y="247.6211"/><path d="M483.9107,278.9111 C485.7907,279.5811 487.1607,280.5811 488.3007,281.7111 C487.6507,282.0811 486.9607,282.4411 486.1407,282.7611 C485.3207,280.7911 484.6107,279.7411 483.9107,278.9111 M486.7407,284.1911 C487.7207,283.7911 488.6507,283.3211 489.5107,282.7711 C491.5207,285.0911 491.9707,286.6411 492.4907,288.1111 C491.0807,289.0911 489.5907,289.9211 487.9407,290.4311 C487.7607,288.5411 487.5007,286.5911 486.7407,284.1911 M487.9707,291.9111 C489.8507,291.3511 491.4607,290.6011 492.7807,289.6611 C493.1807,292.2711 493.0107,293.8311 492.7307,295.2111 C490.5907,296.8311 488.9207,297.5211 487.2707,298.1411 C487.4907,296.8311 487.7107,297.4311 487.9707,291.9111 M486.7907,299.9911 C488.3007,299.5011 489.8307,298.9911 492.0507,297.5511 C490.0907,302.2911 486.6907,304.7311 483.7207,305.7611 C484.8107,304.5411 485.8707,303.0411 486.7907,299.9911 M485.0107,300.4511 C483.5607,304.3611 481.4607,306.1411 479.6507,306.5511 L479.6507,301.1811 C481.5207,301.1311 483.3107,300.9011 485.0107,300.4511 M479.6407,299.7211 L479.6407,293.4711 C481.4607,293.5211 483.8507,293.1111 486.4407,292.5311 C486.4407,295.1811 486.0607,297.0511 485.6307,298.8411 C483.2207,299.4911 481.3607,299.6611 479.6407,299.7211 M479.7207,291.9111 L479.7207,285.5711 C481.6307,285.4711 483.5007,285.2111 485.3107,284.6611 C485.9407,286.5011 486.2707,288.6511 486.5207,290.9211 C484.4307,291.5311 482.1407,291.8211 479.7207,291.9111 M479.5707,278.0211 L480.1607,278.0111 C481.5107,278.4811 482.4707,279.5411 483.0107,280.2411 C483.8307,281.2911 484.2907,282.2611 484.7207,283.2211 C483.3307,283.6111 481.7307,283.9711 479.5707,284.0611 M478.1507,284.1311 C476.4407,284.0511 474.7507,283.7711 473.0907,283.3011 C473.6407,281.9111 474.3607,280.6411 475.3507,279.5811 C475.9507,278.9811 476.6007,278.4211 477.5607,278.0911 L478.1507,278.0911 M478.2207,291.9211 C475.6607,291.8211 473.4107,291.4711 471.4307,290.9311 C471.5607,289.1111 471.6107,287.3711 472.6307,284.6711 C474.8607,285.3711 477.4407,285.5711 478.2307,285.5611 M478.1507,293.4111 L478.1507,299.6611 C476.1807,299.7211 474.2207,299.3811 472.2507,298.8711 C471.6307,296.6411 471.3607,294.5111 471.3707,292.4611 C473.5907,293.0711 475.8507,293.3611 478.1507,293.4111 M478.1507,301.2711 L478.1507,306.6211 C477.0907,306.3911 476.2107,305.8011 475.4407,305.0211 C474.2107,303.7511 473.3707,302.2111 472.7607,300.6611 C474.5507,301.0211 476.3407,301.3011 478.1507,301.2711 M471.0307,300.1111 C472.0407,303.2311 473.1207,304.5511 474.1907,305.8011 C469.4907,304.0111 467.1907,300.7511 465.9207,297.9611 C467.5907,298.8511 469.2607,299.7211 471.0307,300.1111 M465.1507,295.6711 C464.6707,293.9611 464.5407,292.0011 464.9407,289.6511 C466.3107,290.4911 467.8307,291.3011 469.8507,291.9811 C469.8407,294.2811 470.0707,296.3911 470.5307,298.3111 C469.0507,297.8911 467.3507,297.1611 465.1507,295.6711 M465.3807,288.1211 C466.0007,286.0311 467.0407,284.2711 468.3907,282.7711 C469.3507,283.4411 470.2307,283.7811 471.1307,284.2011 C470.3907,286.2611 470.0607,288.5511 469.9407,290.4611 C468.5107,289.9411 467.0607,289.4011 465.3807,288.1211 M469.4107,281.6411 C470.9507,280.3411 472.4407,279.4611 473.9007,278.9111 C473.1607,279.7911 472.3907,280.9311 471.5907,282.6911 C470.7807,282.3411 470.0307,281.9911 469.4107,281.6411 M490.2107,280.3011 C489.5307,279.6411 488.7707,279.0011 487.9707,278.4811 L487.9707,265.1811 L439.4207,265.1811 L439.4207,295.3911 C439.4407,295.8511 439.6807,296.1211 440.1607,296.1511 L462.8907,296.1511 C463.0507,296.8811 463.3007,297.6511 463.5907,298.4011 L440.2407,298.4011 C438.5507,298.4211 437.2707,297.1011 437.1807,295.5611 L437.1807,260.6011 C437.2707,258.6011 438.8607,257.6211 440.1707,257.6311 L487.2907,257.6311 C488.9307,257.6311 490.2307,259.1111 490.2107,260.6011 M476.7607,262.1611 L479.0007,262.1611 L479.0007,259.8911 L476.7607,259.8911 M481.2307,262.1711 L483.4707,262.1711 L483.4707,259.8911 L481.2307,259.8911 M485.7207,262.1511 L487.9607,262.1511 L487.9607,259.8911 L485.7207,259.8911 " fill="#505050" style="stroke:;stroke-width:0.0;stroke-dasharray:;"/><text fill="#FFFFFF" font-family="sans-serif" font-size="16" font-weight="bold" lengthAdjust="spacing" textLength="29.3438" x="432.7275" y="323.8867">Site</text><text fill="#FFFFFF" font-family="sans-serif" font-size="16" font-weight="bold" lengthAdjust="spacing" textLength="4.4453" x="462.0713" y="323.8867">&#160;</text><text fill="#FFFFFF" font-family="sans-serif" font-size="16" font-weight="bold" lengthAdjust="spacing" textLength="31.1172" x="466.5166" y="323.8867">web</text><text fill="#FFFFFF" font-family="sans-serif" font-size="12" font-style="italic" lengthAdjust="spacing" textLength="31.3418" x="399.5" y="340.8516">[Web,</text><text fill="#FFFFFF" font-family="sans-serif" font-size="12" font-style="italic" lengthAdjust="spacing" textLength="3.334" x="430.8418" y="340.8516">&#160;</text><text fill="#FFFFFF" font-family="sans-serif" font-size="12" font-style="italic" lengthAdjust="spacing" textLength="57.3516" x="434.1758" y="340.8516">Javascript,</text><text fill="#FFFFFF" font-family="sans-serif" font-size="12" font-style="italic" lengthAdjust="spacing" textLength="3.334" x="491.5273" y="340.8516">&#160;</text><text fill="#FFFFFF" font-family="sans-serif" font-size="12" font-style="italic" lengthAdjust="spacing" textLength="36" x="494.8613" y="340.8516">HTML]</text></g><!--entity app--><g id="elem_app"><rect fill="#438DD5" height="106.2422" rx="2.5" ry="2.5" style="stroke:#3C7FC0;stroke-width:0.5;" width="157.7969" x="31" y="247.6211"/><path d="M128.6284,278.9111 C130.5084,279.5811 131.8784,280.5811 133.0184,281.7111 C132.3684,282.0811 131.6784,282.4411 130.8584,282.7611 C130.0384,280.7911 129.3284,279.7411 128.6284,278.9111 M131.4584,284.1911 C132.4384,283.7911 133.3684,283.3211 134.2284,282.7711 C136.2384,285.0911 136.6884,286.6411 137.2084,288.1111 C135.7984,289.0911 134.3084,289.9211 132.6584,290.4311 C132.4784,288.5411 132.2184,286.5911 131.4584,284.1911 M132.6884,291.9111 C134.5684,291.3511 136.1784,290.6011 137.4984,289.6611 C137.8984,292.2711 137.7284,293.8311 137.4484,295.2111 C135.3084,296.8311 133.6384,297.5211 131.9884,298.1411 C132.2084,296.8311 132.4284,297.4311 132.6884,291.9111 M131.5084,299.9911 C133.0184,299.5011 134.5484,298.9911 136.7684,297.5511 C134.8084,302.2911 131.4084,304.7311 128.4384,305.7611 C129.5284,304.5411 130.5884,303.0411 131.5084,299.9911 M129.7284,300.4511 C128.2784,304.3611 126.1784,306.1411 124.3684,306.5511 L124.3684,301.1811 C126.2384,301.1311 128.0284,300.9011 129.7284,300.4511 M124.3584,299.7211 L124.3584,293.4711 C126.1784,293.5211 128.5684,293.1111 131.1584,292.5311 C131.1584,295.1811 130.7784,297.0511 130.3484,298.8411 C127.9384,299.4911 126.0784,299.6611 124.3584,299.7211 M124.4384,291.9111 L124.4384,285.5711 C126.3484,285.4711 128.2184,285.2111 130.0284,284.6611 C130.6584,286.5011 130.9884,288.6511 131.2384,290.9211 C129.1484,291.5311 126.8584,291.8211 124.4384,291.9111 M124.2884,278.0211 L124.8784,278.0111 C126.2284,278.4811 127.1884,279.5411 127.7284,280.2411 C128.5484,281.2911 129.0084,282.2611 129.4384,283.2211 C128.0484,283.6111 126.4484,283.9711 124.2884,284.0611 M122.8684,284.1311 C121.1584,284.0511 119.4684,283.7711 117.8084,283.3011 C118.3584,281.9111 119.0784,280.6411 120.0684,279.5811 C120.6684,278.9811 121.3184,278.4211 122.2784,278.0911 L122.8684,278.0911 M122.9384,291.9211 C120.3784,291.8211 118.1284,291.4711 116.1484,290.9311 C116.2784,289.1111 116.3284,287.3711 117.3484,284.6711 C119.5784,285.3711 122.1584,285.5711 122.9484,285.5611 M122.8684,293.4111 L122.8684,299.6611 C120.8984,299.7211 118.9384,299.3811 116.9684,298.8711 C116.3484,296.6411 116.0784,294.5111 116.0884,292.4611 C118.3084,293.0711 120.5684,293.3611 122.8684,293.4111 M122.8684,301.2711 L122.8684,306.6211 C121.8084,306.3911 120.9284,305.8011 120.1584,305.0211 C118.9284,303.7511 118.0884,302.2111 117.4784,300.6611 C119.2684,301.0211 121.0584,301.3011 122.8684,301.2711 M115.7484,300.1111 C116.7584,303.2311 117.8384,304.5511 118.9084,305.8011 C114.2084,304.0111 111.9084,300.7511 110.6384,297.9611 C112.3084,298.8511 113.9784,299.7211 115.7484,300.1111 M109.8684,295.6711 C109.3884,293.9611 109.2584,292.0011 109.6584,289.6511 C111.0284,290.4911 112.5484,291.3011 114.5684,291.9811 C114.5584,294.2811 114.7884,296.3911 115.2484,298.3111 C113.7684,297.8911 112.0684,297.1611 109.8684,295.6711 M110.0984,288.1211 C110.7184,286.0311 111.7584,284.2711 113.1084,282.7711 C114.0684,283.4411 114.9484,283.7811 115.8484,284.2011 C115.1084,286.2611 114.7784,288.5511 114.6584,290.4611 C113.2284,289.9411 111.7784,289.4011 110.0984,288.1211 M114.1284,281.6411 C115.6684,280.3411 117.1584,279.4611 118.6184,278.9111 C117.8784,279.7911 117.1084,280.9311 116.3084,282.6911 C115.4984,282.3411 114.7484,281.9911 114.1284,281.6411 M134.9284,280.3011 C134.2484,279.6411 133.4884,279.0011 132.6884,278.4811 L132.6884,265.1811 L84.1384,265.1811 L84.1384,295.3911 C84.1584,295.8511 84.3984,296.1211 84.8784,296.1511 L107.6084,296.1511 C107.7684,296.8811 108.0184,297.6511 108.3084,298.4011 L84.9584,298.4011 C83.2684,298.4211 81.9884,297.1011 81.8984,295.5611 L81.8984,260.6011 C81.9884,258.6011 83.5784,257.6211 84.8884,257.6311 L132.0084,257.6311 C133.6484,257.6311 134.9484,259.1111 134.9284,260.6011 M121.4784,262.1611 L123.7184,262.1611 L123.7184,259.8911 L121.4784,259.8911 M125.9484,262.1711 L128.1884,262.1711 L128.1884,259.8911 L125.9484,259.8911 M130.4384,262.1511 L132.6784,262.1511 L132.6784,259.8911 L130.4384,259.8911 " fill="#505050" style="stroke:;stroke-width:0.0;stroke-dasharray:;"/><text fill="#FFFFFF" font-family="sans-serif" font-size="16" font-weight="bold" lengthAdjust="spacing" textLength="87.1094" x="41" y="323.8867">Application</text><text fill="#FFFFFF" font-family="sans-serif" font-size="16" font-weight="bold" lengthAdjust="spacing" textLength="4.4453" x="128.1094" y="323.8867">&#160;</text><text fill="#FFFFFF" font-family="sans-serif" font-size="16" font-weight="bold" lengthAdjust="spacing" textLength="46.2422" x="132.5547" y="323.8867">native</text><text fill="#FFFFFF" font-family="sans-serif" font-size="12" font-style="italic" lengthAdjust="spacing" textLength="36.6855" x="75.2197" y="340.8516">[Kotlin,</text><text fill="#FFFFFF" font-family="sans-serif" font-size="12" font-style="italic" lengthAdjust="spacing" textLength="3.334" x="111.9053" y="340.8516">&#160;</text><text fill="#FFFFFF" font-family="sans-serif" font-size="12" font-style="italic" lengthAdjust="spacing" textLength="29.3379" x="115.2393" y="340.8516">Swift]</text></g><!--entity ws--><g id="elem_ws"><rect fill="#438DD5" height="113.2422" rx="2.5" ry="2.5" style="stroke:#3C7FC0;stroke-width:0.5;" width="124.0547" x="225" y="413.6211"/><path d="M290.8173,462.7211 L287.7173,461.4511 C287.2773,461.2011 287.0873,460.8411 287.2673,460.3311 L288.4473,457.5311 C288.6973,457.1111 289.0373,456.8611 289.5573,457.0711 L292.4573,458.5211 C293.3773,457.4311 294.3773,456.3611 295.5073,455.4211 L294.2373,452.3411 C294.1373,451.9711 294.0973,451.6111 294.6473,451.2611 L297.5473,450.0511 C298.0973,449.8711 298.4073,450.1111 298.5973,450.4311 L299.8973,453.5911 C301.2073,453.3411 302.4973,453.2211 304.0173,453.6611 L305.3273,450.4611 C305.6073,450.0111 305.9773,449.8911 306.4073,450.0511 L309.2973,451.2711 C309.7773,451.5611 309.8273,451.9211 309.7073,452.3011 L308.4173,455.4611 C309.5573,456.3611 310.5873,457.3211 311.4273,458.4011 L314.5373,457.1411 C315.0973,456.9911 315.4273,457.2011 315.6373,457.6111 L316.8573,460.4811 C316.9373,460.9011 316.8473,461.2611 316.4173,461.5011 L313.2573,462.7711 C313.4073,464.0011 313.3873,465.5411 313.2573,466.8911 L316.4173,468.1611 C316.8373,468.4211 317.0273,468.7611 316.8973,469.2111 L315.7473,471.9011 C315.5173,472.2511 315.2073,472.4311 314.7473,472.3111 L311.5573,471.0311 C310.7173,472.1711 309.6773,473.1811 308.4973,474.0711 L309.7673,477.1611 C309.9573,477.6511 309.7073,478.0711 309.3973,478.2211 L306.3473,479.4911 C305.9373,479.5711 305.5673,479.5311 305.3873,479.0211 L304.0973,475.8611 C302.9173,476.1811 301.4773,476.2711 299.9873,475.8911 L298.6973,479.0111 C298.4973,479.3411 298.2673,479.6211 297.6973,479.4811 L294.7173,478.2511 C294.2873,477.9511 294.0973,477.5811 294.3673,477.0711 L295.7873,474.2611 C294.5373,473.3211 293.4873,472.3211 292.6673,471.2511 L289.6173,472.5011 C289.1373,472.6711 288.7573,472.5611 288.4773,472.1211 L287.2573,469.2211 C287.1273,468.8311 287.2273,468.3811 287.6773,468.1611 L290.8373,466.8011 C290.7073,465.4511 290.6973,464.0811 290.8173,462.7211 M294.2173,464.7011 C294.2173,469.5211 298.2173,472.5111 302.1173,472.5111 C306.3573,472.5111 309.8673,468.9311 309.8673,464.7711 C309.8673,460.3111 306.0873,456.9611 302.1373,456.9611 C298.2773,456.9611 294.2173,459.8611 294.2173,464.7011 M265.4173,429.7711 C268.0573,427.5611 270.6273,426.0711 273.1573,425.1411 C271.8673,426.6511 270.5473,428.5811 269.1673,431.5611 C267.7573,430.9611 266.4773,430.3711 265.4173,429.7711 M258.4773,440.7611 C259.5373,437.2211 261.3273,434.2511 263.6373,431.7011 C265.3073,432.8211 266.8373,433.4111 268.3773,434.1211 C267.0973,437.6111 266.5273,441.4911 266.3273,444.7311 C263.8473,443.8511 261.3673,442.9311 258.4773,440.7611 M258.0573,453.5711 C257.2473,450.6711 257.0273,447.3411 257.7073,443.3611 C260.0573,444.8011 262.6973,446.1611 266.1673,447.3211 C266.1573,451.2211 266.5373,454.8011 267.3473,458.0511 C264.7973,457.3411 261.8673,456.0911 258.0573,453.5711 M268.2073,461.1111 C269.9473,466.3911 271.7973,468.6311 273.6573,470.7611 C265.5473,467.7211 261.5873,462.1911 259.3973,457.4711 C262.2773,458.9611 265.1673,460.4511 268.2073,461.1111 M280.4773,463.0711 L280.4773,472.1511 C278.6573,471.7611 277.1373,470.7711 275.8073,469.4311 C273.6873,467.2711 272.2573,464.6711 271.1973,462.0511 C274.2773,462.6711 277.3573,463.1311 280.4773,463.0711 M280.4773,449.7411 L280.4873,460.3611 C277.0873,460.4511 273.7073,459.8711 270.3073,459.0011 C269.2373,455.2211 268.7673,451.6111 268.7873,448.1211 C272.6273,449.1711 276.5273,449.6611 280.4773,449.7411 M280.6073,447.2111 C276.1773,447.0411 272.3073,446.4511 268.8973,445.5211 C269.1273,442.4311 269.2073,439.5011 270.9473,434.9111 C274.7973,436.1111 279.2573,436.4511 280.6173,436.4211 M280.4773,434.0011 C277.5273,433.8711 274.6173,433.3911 271.7473,432.5711 C272.7073,430.2311 273.9473,428.0811 275.6573,426.2711 C276.6873,425.2511 277.8173,424.2911 279.4573,423.7511 L280.4773,423.7511 M282.9273,423.6211 L283.9473,423.6211 C286.2773,424.3911 287.9073,426.2111 288.8573,427.3911 C290.2773,429.1811 291.0573,430.8211 291.7973,432.4511 C289.4173,433.1211 286.6573,433.7311 282.9273,433.8711 M283.1873,447.1911 L283.1873,436.4411 C286.4873,436.2811 289.7073,435.8311 292.8373,434.9011 C293.8973,438.0011 294.4773,441.6711 294.8973,445.5111 C291.2973,446.5511 287.3573,447.0511 283.1873,447.1911 M283.0373,460.4511 L283.0373,449.8511 C286.1973,449.9311 290.3173,449.2211 294.7673,448.2311 L294.7673,448.8511 C294.2073,449.0511 293.7773,449.2111 293.4073,449.4411 C291.8673,450.4811 291.8773,452.1111 292.1773,453.0111 L292.9273,454.7311 L292.0773,455.5611 L290.4173,454.8411 C288.9473,454.3311 287.5273,454.9611 286.7773,456.1311 L285.3773,459.3811 C285.2573,459.7211 285.1673,460.0411 285.1873,460.3411 C284.1373,460.4811 283.7273,460.4311 283.0373,460.4511 M286.5573,463.1411 L288.6273,464.0411 L288.6273,465.2411 L286.8373,465.9911 C285.6773,466.5911 284.7373,468.0211 285.3273,469.7311 L285.7973,470.8511 C285.0373,471.4811 283.9473,471.8311 283.0573,472.0311 L283.0573,462.9311 C284.0873,462.9011 284.6273,462.9111 286.0973,462.7511 M297.4073,447.2011 C300.6473,446.2311 303.4173,444.9511 305.6973,443.3611 C305.9573,445.0311 306.1073,446.1111 306.1073,447.6911 C304.9973,447.6311 303.7873,448.2711 303.2373,449.3911 L302.5773,451.1311 L301.2973,451.1311 L300.5973,449.4311 C300.1773,448.6011 299.1373,447.5611 297.3773,447.8011 M295.2873,434.1011 C296.9873,433.4111 298.5773,432.6211 300.0573,431.7011 C303.5173,435.6211 304.2973,438.2411 305.1973,440.7411 C302.7573,442.4011 300.1973,443.8211 297.3573,444.6911 C297.0573,441.4811 296.6073,438.1511 295.2873,434.1011 M290.4073,425.1311 C293.6473,426.2811 295.9973,427.9711 297.9773,429.8911 C296.8573,430.5211 295.6473,431.1411 294.2473,431.6911 C292.8473,428.3411 291.6073,426.5611 290.4073,425.1311 " fill="#505050" style="stroke:;stroke-width:0.0;stroke-dasharray:;"/><text fill="#FFFFFF" font-family="sans-serif" font-size="16" font-weight="bold" lengthAdjust="spacing" textLength="33.7734" x="235" y="496.8867">Web</text><text fill="#FFFFFF" font-family="sans-serif" font-size="16" font-weight="bold" lengthAdjust="spacing" textLength="4.4453" x="268.7734" y="496.8867">&#160;</text><text fill="#FFFFFF" font-family="sans-serif" font-size="16" font-weight="bold" lengthAdjust="spacing" textLength="65.8359" x="273.2188" y="496.8867">Services</text><text fill="#FFFFFF" font-family="sans-serif" font-size="12" font-style="italic" lengthAdjust="spacing" textLength="22.6758" x="236.0068" y="513.8516">[API</text><text fill="#FFFFFF" font-family="sans-serif" font-size="12" font-style="italic" lengthAdjust="spacing" textLength="3.334" x="258.6826" y="513.8516">&#160;</text><text fill="#FFFFFF" font-family="sans-serif" font-size="12" font-style="italic" lengthAdjust="spacing" textLength="24.6738" x="262.0166" y="513.8516">Rest</text><text fill="#FFFFFF" font-family="sans-serif" font-size="12" font-style="italic" lengthAdjust="spacing" textLength="3.334" x="286.6904" y="513.8516">&#160;</text><text fill="#FFFFFF" font-family="sans-serif" font-size="12" font-style="italic" lengthAdjust="spacing" textLength="3.9961" x="290.0244" y="513.8516">-</text><text fill="#FFFFFF" font-family="sans-serif" font-size="12" font-style="italic" lengthAdjust="spacing" textLength="3.334" x="294.0205" y="513.8516">&#160;</text><text fill="#FFFFFF" font-family="sans-serif" font-size="12" font-style="italic" lengthAdjust="spacing" textLength="40.6934" x="297.3545" y="513.8516">Python]</text></g><!--entity db--><g id="elem_db"><rect fill="#438DD5" height="106.2422" rx="2.5" ry="2.5" style="stroke:#3C7FC0;stroke-width:0.5;" width="140.0762" x="217" y="586.6211"/><path d="M269.5381,602.2511 C269.5381,598.8711 278.4981,596.6211 286.2981,596.6211 C296.8181,596.6211 304.5381,599.0811 304.5381,602.2411 C304.5381,605.7211 295.2981,607.8511 287.3981,607.8511 C277.6481,607.8511 269.5381,605.5011 269.5381,602.2511 M269.5381,606.2111 C274.4481,609.7211 282.3181,610.0111 287.3881,610.1011 C292.3081,609.9811 300.1281,609.5311 304.5381,606.2111 L304.5381,638.5311 C304.2381,642.0711 299.9981,643.6711 296.5681,644.4011 C291.2181,645.6111 282.8381,645.6211 277.1781,644.3411 C275.1881,643.8711 269.7481,642.4911 269.5381,638.4711 " fill="#505050" style="stroke:;stroke-width:0.0;stroke-dasharray:;"/><text fill="#FFFFFF" font-family="sans-serif" font-size="16" font-weight="bold" lengthAdjust="spacing" textLength="71.1484" x="251.4639" y="662.8867">Database</text><text fill="#FFFFFF" font-family="sans-serif" font-size="12" font-style="italic" lengthAdjust="spacing" textLength="56.7012" x="227" y="679.8516">[Relational</text><text fill="#FFFFFF" font-family="sans-serif" font-size="12" font-style="italic" lengthAdjust="spacing" textLength="3.334" x="283.7012" y="679.8516">&#160;</text><text fill="#FFFFFF" font-family="sans-serif" font-size="12" font-style="italic" lengthAdjust="spacing" textLength="26.6953" x="287.0352" y="679.8516">dada</text><text fill="#FFFFFF" font-family="sans-serif" font-size="12" font-style="italic" lengthAdjust="spacing" textLength="3.334" x="313.7305" y="679.8516">&#160;</text><text fill="#FFFFFF" font-family="sans-serif" font-size="12" font-style="italic" lengthAdjust="spacing" textLength="30.0117" x="317.0645" y="679.8516">store]</text></g><!--entity user--><g id="elem_user"><rect fill="#08427B" height="128.5234" rx="2.5" ry="2.5" style="stroke:#073B6F;stroke-width:0.5;" width="184.9648" x="33.5" y="46.6211"/><path d="M125.9824,81.5111 C119.9524,81.5111 114.5824,76.4711 114.5824,68.7511 C114.5824,62.7611 119.1224,56.6211 125.7724,56.6211 C132.2624,56.6211 137.0124,62.5611 137.0124,69.0411 C137.0124,76.5311 131.4124,81.5111 125.9824,81.5111 M102.9824,106.6211 C103.5024,101.1011 104.2024,93.5611 105.5224,89.7511 C106.1324,88.0211 107.0224,86.7811 108.4524,85.7411 C109.3824,85.0511 112.6824,83.2311 113.2924,82.9311 C114.3524,82.3811 115.4424,82.0911 116.3824,82.9311 C121.9824,87.8811 129.7224,87.7311 135.4024,82.9511 C136.0624,82.2711 137.1024,82.4511 137.7924,82.7211 C138.8824,83.1411 142.3624,85.1911 143.0224,85.6111 C144.9424,86.8711 145.9824,88.5511 146.7524,91.7111 C147.7324,95.9811 148.3124,101.4111 148.9824,106.6211 " fill="#CCCBCB" style="stroke:;stroke-width:0.0;stroke-dasharray:;"/><text fill="#FFFFFF" font-family="sans-serif" font-size="16" font-weight="bold" lengthAdjust="spacing" textLength="35.5781" x="108.1934" y="123.8867">User</text><text fill="#FFFFFF" font-family="sans-serif" font-size="14" lengthAdjust="spacing" textLength="3.8896" x="124.0376" y="143.0098">&#160;</text><text fill="#FFFFFF" font-family="sans-serif" font-size="14" lengthAdjust="spacing" textLength="33.4688" x="43.5" y="161.6309">Read</text><text fill="#FFFFFF" font-family="sans-serif" font-size="14" lengthAdjust="spacing" textLength="3.8896" x="76.9688" y="161.6309">&#160;</text><text fill="#FFFFFF" font-family="sans-serif" font-size="14" lengthAdjust="spacing" textLength="23.3584" x="80.8584" y="161.6309">and</text><text fill="#FFFFFF" font-family="sans-serif" font-size="14" lengthAdjust="spacing" textLength="3.8896" x="104.2168" y="161.6309">&#160;</text><text fill="#FFFFFF" font-family="sans-serif" font-size="14" lengthAdjust="spacing" textLength="32.6621" x="108.1064" y="161.6309">Write</text><text fill="#FFFFFF" font-family="sans-serif" font-size="14" lengthAdjust="spacing" textLength="3.8896" x="140.7686" y="161.6309">&#160;</text><text fill="#FFFFFF" font-family="sans-serif" font-size="14" lengthAdjust="spacing" textLength="63.8066" x="144.6582" y="161.6309">Messages</text></g><!--entity moderator--><g id="elem_moderator"><rect fill="#08427B" height="128.5234" rx="2.5" ry="2.5" style="stroke:#073B6F;stroke-width:0.5;" width="136.7305" x="283.5" y="46.6211"/><path d="M351.8652,81.5111 C345.8352,81.5111 340.4652,76.4711 340.4652,68.7511 C340.4652,62.7611 345.0052,56.6211 351.6552,56.6211 C358.1452,56.6211 362.8952,62.5611 362.8952,69.0411 C362.8952,76.5311 357.2952,81.5111 351.8652,81.5111 M328.8652,106.6211 C329.3852,101.1011 330.0852,93.5611 331.4052,89.7511 C332.0152,88.0211 332.9052,86.7811 334.3352,85.7411 C335.2652,85.0511 338.5652,83.2311 339.1752,82.9311 C340.2352,82.3811 341.3252,82.0911 342.2652,82.9311 C347.8652,87.8811 355.6052,87.7311 361.2852,82.9511 C361.9452,82.2711 362.9852,82.4511 363.6752,82.7211 C364.7652,83.1411 368.2452,85.1911 368.9052,85.6111 C370.8252,86.8711 371.8652,88.5511 372.6352,91.7111 C373.6152,95.9811 374.1952,101.4111 374.8652,106.6211 " fill="#CCCBCB" style="stroke:;stroke-width:0.0;stroke-dasharray:;"/><text fill="#FFFFFF" font-family="sans-serif" font-size="16" font-weight="bold" lengthAdjust="spacing" textLength="78.2266" x="312.752" y="123.8867">Moderator</text><text fill="#FFFFFF" font-family="sans-serif" font-size="14" lengthAdjust="spacing" textLength="3.8896" x="349.9204" y="143.0098">&#160;</text><text fill="#FFFFFF" font-family="sans-serif" font-size="14" lengthAdjust="spacing" textLength="49.0342" x="293.5" y="161.6309">Content</text><text fill="#FFFFFF" font-family="sans-serif" font-size="14" lengthAdjust="spacing" textLength="3.8896" x="342.5342" y="161.6309">&#160;</text><text fill="#FFFFFF" font-family="sans-serif" font-size="14" lengthAdjust="spacing" textLength="63.8066" x="346.4238" y="161.6309">moderator</text></g><!--entity admin--><g id="elem_admin"><rect fill="#08427B" height="128.5234" rx="2.5" ry="2.5" style="stroke:#073B6F;stroke-width:0.5;" width="209.8545" x="471" y="46.6211"/><path d="M575.9272,81.5111 C569.8972,81.5111 564.5272,76.4711 564.5272,68.7511 C564.5272,62.7611 569.0672,56.6211 575.7172,56.6211 C582.2072,56.6211 586.9572,62.5611 586.9572,69.0411 C586.9572,76.5311 581.3572,81.5111 575.9272,81.5111 M552.9272,106.6211 C553.4472,101.1011 554.1472,93.5611 555.4672,89.7511 C556.0772,88.0211 556.9672,86.7811 558.3972,85.7411 C559.3272,85.0511 562.6272,83.2311 563.2372,82.9311 C564.2972,82.3811 565.3872,82.0911 566.3272,82.9311 C571.9272,87.8811 579.6672,87.7311 585.3472,82.9511 C586.0072,82.2711 587.0472,82.4511 587.7372,82.7211 C588.8272,83.1411 592.3072,85.1911 592.9672,85.6111 C594.8872,86.8711 595.9272,88.5511 596.6972,91.7111 C597.6772,95.9811 598.2572,101.4111 598.9272,106.6211 " fill="#CCCBCB" style="stroke:;stroke-width:0.0;stroke-dasharray:;"/><text fill="#FFFFFF" font-family="sans-serif" font-size="16" font-weight="bold" lengthAdjust="spacing" textLength="104.8984" x="523.478" y="123.8867">Administrator</text><text fill="#FFFFFF" font-family="sans-serif" font-size="14" lengthAdjust="spacing" textLength="3.8896" x="573.9824" y="143.0098">&#160;</text><text fill="#FFFFFF" font-family="sans-serif" font-size="14" lengthAdjust="spacing" textLength="77.8066" x="481" y="161.6309">Administrate</text><text fill="#FFFFFF" font-family="sans-serif" font-size="14" lengthAdjust="spacing" textLength="3.8896" x="558.8066" y="161.6309">&#160;</text><text fill="#FFFFFF" font-family="sans-serif" font-size="14" lengthAdjust="spacing" textLength="23.3379" x="562.6963" y="161.6309">IDP</text><text fill="#FFFFFF" font-family="sans-serif" font-size="14" lengthAdjust="spacing" textLength="3.8896" x="586.0342" y="161.6309">&#160;</text><text fill="#FFFFFF" font-family="sans-serif" font-size="14" lengthAdjust="spacing" textLength="23.3584" x="589.9238" y="161.6309">and</text><text fill="#FFFFFF" font-family="sans-serif" font-size="14" lengthAdjust="spacing" textLength="3.8896" x="613.2822" y="161.6309">&#160;</text><text fill="#FFFFFF" font-family="sans-serif" font-size="14" lengthAdjust="spacing" textLength="53.6826" x="617.1719" y="161.6309">Services</text></g><!--link front to ws--><g id="link_front_ws"><path d="M409.66,353.7011 C389.45,372.7111 370.8995,390.1692 350.3795,409.4792 " fill="none" id="front-to-ws" style="stroke:#666666;stroke-width:1.0;"/><polygon fill="#666666" points="346.01,413.5911,355.3055,410.3363,349.6513,410.1645,349.823,404.5103,346.01,413.5911" style="stroke:#666666;stroke-width:1.0;"/></g><!--link app to ws--><g id="link_app_ws"><path d="M165.03,353.7011 C185.13,372.7111 203.5625,390.1565 223.9625,409.4665 " fill="none" id="app-to-ws" style="stroke:#666666;stroke-width:1.0;"/><polygon fill="#666666" points="228.32,413.5911,224.5336,404.4992,224.6888,410.1539,219.0341,410.3091,228.32,413.5911" style="stroke:#666666;stroke-width:1.0;"/></g><!--link ws to db--><g id="link_ws_db"><path d="M287,526.9011 C287,546.1211 287,561.5611 287,580.4911 " fill="none" id="ws-to-db" style="stroke:#666666;stroke-width:1.0;"/><polygon fill="#666666" points="287,586.4911,291,577.4911,287,581.4911,283,577.4911,287,586.4911" style="stroke:#666666;stroke-width:1.0;"/></g><!--link user to app--><g id="link_user_app"><path d="M120.56,175.8611 C118.57,199.2211 116.8514,219.3729 114.9514,241.5829 " fill="none" id="user-to-app" style="stroke:#666666;stroke-width:1.0;"/><polygon fill="#666666" points="114.44,247.5611,119.1926,238.9348,114.8662,242.5793,111.2217,238.2529,114.44,247.5611" style="stroke:#666666;stroke-width:1.0;"/></g><!--link user to kc--><g id="link_user_kc"><path d="M198.67,175.7211 C201.18,178.3511 203.64,180.9911 206,183.6211 C225.1,204.9111 240.4826,225.6419 255.3226,247.4319 " fill="none" id="user-to-kc" style="stroke:#666666;stroke-width:1.0;"/><polygon fill="#666666" points="258.7,252.3911,256.94,242.7008,255.8855,248.2585,250.3278,247.204,258.7,252.3911" style="stroke:#666666;stroke-width:1.0;"/></g><!--link moderator to front--><g id="link_moderator_front"><path d="M390.41,175.8611 C404.49,199.2211 417.1421,220.2127 430.5321,242.4227 " fill="none" id="moderator-to-front" style="stroke:#666666;stroke-width:1.0;"/><polygon fill="#666666" points="433.63,247.5611,432.4088,237.7882,431.0485,243.2791,425.5576,241.9187,433.63,247.5611" style="stroke:#666666;stroke-width:1.0;"/></g><!--link moderator to kc--><g id="link_moderator_kc"><path d="M330.58,175.8611 C322.16,200.9211 314.5813,223.4837 306.7913,246.6637 " fill="none" id="moderator-to-kc" style="stroke:#666666;stroke-width:1.0;"/><polygon fill="#666666" points="304.88,252.3511,311.5386,245.0942,306.4728,247.6116,303.9554,242.5457,304.88,252.3511" style="stroke:#666666;stroke-width:1.0;"/></g><!--link admin to system--><g id="link_admin_system"><path d="M576,175.8611 C576,182.5498 576,189.4663 576,196.453 C576,197.3264 576,192.2008 576,193.0761 " fill="none" id="admin-to-system" style="stroke:#666666;stroke-width:1.0;"/><polygon fill="#666666" points="576,199.0761,580,190.0761,576,194.0761,572,190.0761,576,199.0761" style="stroke:#666666;stroke-width:1.0;"/></g><text fill="#000000" font-family="sans-serif" font-size="14" font-weight="bold" lengthAdjust="spacing" textLength="112.0068" x="536.7861" y="755.7285">C4Model Legend</text><text fill="#FFFFFF" font-family="sans-serif" font-size="14" lengthAdjust="spacing" textLength="3.8896" x="648.793" y="755.7285">&#160;</text><rect fill="#08427B" height="18.6211" style="stroke:none;stroke-width:1.0;" width="119.0684" x="536.7861" y="759.2422"/><text fill="#FFFFFF" font-family="sans-serif" font-size="14" lengthAdjust="spacing" textLength="42.8066" x="540.6758" y="774.3496">person</text><rect fill="#1168BD" height="18.6211" style="stroke:none;stroke-width:1.0;" width="119.0684" x="536.7861" y="777.8633"/><text fill="#FFFFFF" font-family="sans-serif" font-size="14" lengthAdjust="spacing" textLength="44.3379" x="540.6758" y="792.9707">system</text><rect fill="#438DD5" height="18.6211" style="stroke:none;stroke-width:1.0;" width="119.0684" x="536.7861" y="796.4844"/><text fill="#FFFFFF" font-family="sans-serif" font-size="14" lengthAdjust="spacing" textLength="57.5928" x="540.6758" y="811.5918">container</text><rect fill="#686868" height="18.6211" style="stroke:none;stroke-width:1.0;" width="119.0684" x="536.7861" y="815.1055"/><text fill="#FFFFFF" font-family="sans-serif" font-size="14" lengthAdjust="spacing" textLength="96.5029" x="540.6758" y="830.2129">external person</text><rect fill="#999999" height="18.6211" style="stroke:none;stroke-width:1.0;" width="119.0684" x="536.7861" y="833.7266"/><text fill="#FFFFFF" font-family="sans-serif" font-size="14" lengthAdjust="spacing" textLength="98.0342" x="540.6758" y="848.834">external system</text><rect fill="#B3B3B3" height="18.6211" style="stroke:none;stroke-width:1.0;" width="119.0684" x="536.7861" y="852.3477"/><text fill="#FFFFFF" font-family="sans-serif" font-size="14" lengthAdjust="spacing" textLength="111.2891" x="540.6758" y="867.4551">external container</text><line style="stroke:#FFFFFF;stroke-width:1.0;" x1="536.7861" x2="655.8545" y1="740.6211" y2="740.6211"/><line style="stroke:#FFFFFF;stroke-width:1.0;" x1="536.7861" x2="655.8545" y1="759.2422" y2="759.2422"/><line style="stroke:#FFFFFF;stroke-width:1.0;" x1="536.7861" x2="655.8545" y1="777.8633" y2="777.8633"/><line style="stroke:#FFFFFF;stroke-width:1.0;" x1="536.7861" x2="655.8545" y1="796.4844" y2="796.4844"/><line style="stroke:#FFFFFF;stroke-width:1.0;" x1="536.7861" x2="655.8545" y1="815.1055" y2="815.1055"/><line style="stroke:#FFFFFF;stroke-width:1.0;" x1="536.7861" x2="655.8545" y1="833.7266" y2="833.7266"/><line style="stroke:#FFFFFF;stroke-width:1.0;" x1="536.7861" x2="655.8545" y1="852.3477" y2="852.3477"/><line style="stroke:#FFFFFF;stroke-width:1.0;" x1="536.7861" x2="655.8545" y1="870.9688" y2="870.9688"/><line style="stroke:#FFFFFF;stroke-width:1.0;" x1="536.7861" x2="536.7861" y1="740.6211" y2="870.9688"/><line style="stroke:#FFFFFF;stroke-width:1.0;" x1="655.8545" x2="655.8545" y1="740.6211" y2="870.9688"/><!--SRC=[bL9DZzem4BtxLyn6bHOa1thOKwLMMi6sInTQn8TMFI4d7i32YIFRaA9g_tl7faaeFJM7U3xUUpCUpptSgJBNHucmzxvo7uP3A-h1JldzCJiwjBafFPP-a9jYM6bH-cEXK-UbLjbmz93EGsWzcmuBuJnQ2cr6WV7J3of2idiubaGjI0By7c5hj3QrAdUWLOaWIWb_fPLrP1cWqg1DBhG-ixR3mNN5zBEnXwwJM5QGfhqKRacIxgDCwb1Zxb6chhBAOmJTlUzWpcnzBIowFm3N8DZqySVtzMhpEbazRwPFNvw-ZNjznhpo6W563z0MPcoErfco5-R6apNz4vuiKCXupzSW2pDqJkpG9Vq6NHY9LdX3b5bZ9XoIqMNoqEOxYf25Addo60xbVCn2u5n542RZUIoyH7jIUIp9bcTwfgBdua64YmzpQqvAOgoRz7yneA-zL- -Gy-G5pxasuX0G4qbzAN_cK6C6iHaAlxiCxcEYP9KU6dZ_HcjhoUJ9Cio2s47k5JCENyL9kDogodDuNiscruAYghJAXLUcJ0FdLfFoD8mE12KT9mpQByRJed5Orchh_qUpTZmqrWqlJ7S-WGNIWgOmF_kzeLktUgH1EnQn_sZ9Z2TZuKKcN6ngWJeM5Xgaa08SFHzUQSa6ssTlZCM9GPf-WjenQhinQnSjcJ4M5YuwbEwSGyxQtOc1g7GJ8r1ymEXSreBz1W00]--></g></svg>