<?xml version="1.0" encoding="us-ascii" standalone="no"?><svg xmlns="http://www.w3.org/2000/svg" xmlns:xlink="http://www.w3.org/1999/xlink" contentStyleType="text/css" height="872px" preserveAspectRatio="none" style="width:547px;height:872px;background:#FFFFFF;" version="1.1" viewBox="0 0 547 872" width="547px" zoomAndPan="magnify"><defs/><g><rect fill="#FFFFFF" height="350.5938" style="stroke:#181818;stroke-width:1.0;" width="10" x="30" y="96.2969"/><rect fill="#FFFFFF" height="145.6641" style="stroke:#181818;stroke-width:1.0;" width="10" x="160" y="117.4297"/><rect fill="#FFFFFF" height="145.6641" style="stroke:#181818;stroke-width:1.0;" width="10" x="160" y="292.2266"/><rect fill="#FFFFFF" height="29.1328" style="stroke:#181818;stroke-width:1.0;" width="10" x="329" y="146.5625"/><rect fill="#FFFFFF" height="29.1328" style="stroke:#181818;stroke-width:1.0;" width="10" x="329" y="379.625"/><rect fill="#FFFFFF" height="29.1328" style="stroke:#181818;stroke-width:1.0;" width="10" x="426" y="204.8281"/><rect fill="#FFFFFF" height="29.1328" style="stroke:#181818;stroke-width:1.0;" width="10" x="426" y="321.3594"/><line style="stroke:#181818;stroke-width:0.5;stroke-dasharray:5.0,5.0;" x1="35" x2="35" y1="86.2969" y2="455.8906"/><line style="stroke:#181818;stroke-width:0.5;stroke-dasharray:5.0,5.0;" x1="165" x2="165" y1="86.2969" y2="455.8906"/><line style="stroke:#181818;stroke-width:0.5;stroke-dasharray:5.0,5.0;" x1="334" x2="334" y1="86.2969" y2="455.8906"/><line style="stroke:#181818;stroke-width:0.5;stroke-dasharray:5.0,5.0;" x1="431" x2="431" y1="86.2969" y2="455.8906"/><rect fill="none" height="80.2969" rx="2.5" ry="2.5" style="stroke:none;stroke-width:0.5;" width="60" x="5" y="5"/><path d="M35,36.89 C28.97,36.89 23.6,31.85 23.6,24.13 C23.6,18.14 28.14,12 34.79,12 C41.28,12 46.03,17.94 46.03,24.42 C46.03,31.91 40.43,36.89 35,36.89 M12,62 C12.52,56.48 13.22,48.94 14.54,45.13 C15.15,43.4 16.04,42.16 17.47,41.12 C18.4,40.43 21.7,38.61 22.31,38.31 C23.37,37.76 24.46,37.47 25.4,38.31 C31,43.26 38.74,43.11 44.42,38.33 C45.08,37.65 46.12,37.83 46.81,38.1 C47.9,38.52 51.38,40.57 52.04,40.99 C53.96,42.25 55,43.93 55.77,47.09 C56.75,51.36 57.33,56.79 58,62 " fill="#505050" style="stroke:;stroke-width:0.0;stroke-dasharray:;"/><text fill="#000000" font-family="sans-serif" font-size="14" lengthAdjust="spacing" textLength="31" x="21.5" y="74.9951">User</text><rect fill="none" height="80.2969" rx="2.5" ry="2.5" style="stroke:none;stroke-width:0.5;" width="60" x="5" y="454.8906"/><path d="M35,486.7806 C28.97,486.7806 23.6,481.7406 23.6,474.0206 C23.6,468.0306 28.14,461.8906 34.79,461.8906 C41.28,461.8906 46.03,467.8306 46.03,474.3106 C46.03,481.8006 40.43,486.7806 35,486.7806 M12,511.8906 C12.52,506.3706 13.22,498.8306 14.54,495.0206 C15.15,493.2906 16.04,492.0506 17.47,491.0106 C18.4,490.3206 21.7,488.5006 22.31,488.2006 C23.37,487.6506 24.46,487.3606 25.4,488.2006 C31,493.1506 38.74,493.0006 44.42,488.2206 C45.08,487.5406 46.12,487.7206 46.81,487.9906 C47.9,488.4106 51.38,490.4606 52.04,490.8806 C53.96,492.1406 55,493.8206 55.77,496.9806 C56.75,501.2506 57.33,506.6806 58,511.8906 " fill="#505050" style="stroke:;stroke-width:0.0;stroke-dasharray:;"/><text fill="#000000" font-family="sans-serif" font-size="14" lengthAdjust="spacing" textLength="31" x="21.5" y="524.8857">User</text><rect fill="none" height="75.2969" rx="2.5" ry="2.5" style="stroke:none;stroke-width:0.5;" width="76" x="127" y="10"/><path d="M185.038,29.107 L184.638,29.107 L167.138,29.107 C163.122,28.473 159.739,29.64 156.988,32.607 A15.172,15.172 0 0 0 155.438,35.007 A391.45,391.45 0 0 0 146.038,27.907 A0.3,0.3 0 0 0 145.838,27.707 C149.336,22.187 154.303,18.737 160.738,17.357 C169.254,16.006 176.404,18.49 182.188,24.807 A20.62,20.62 0 0 1 185.038,29.107 " fill="#D31A1A" style="stroke:;stroke-width:0.0;stroke-dasharray:;"/><path d="M145.838,27.707 A0.3,0.3 0 0 1 146.038,27.907 L154.638,41.407 C155.848,46.434 159.015,49.317 164.138,50.057 A13.73,13.73 0 0 0 166.438,50.007 L164.038,61.407 C164.042,61.499 164.076,61.565 164.138,61.607 L163.938,62.007 C156.806,61.517 151.089,58.45 146.788,52.807 C142.302,46.24 141.336,39.173 143.888,31.607 C144.397,30.224 145.047,28.924 145.838,27.707 " fill="#0FA05F" style="stroke:;stroke-width:0.0;stroke-dasharray:;"/><path d="M146.038,27.907 A391.45,391.45 0 0 1 155.438,35.007 C154.515,37.057 154.248,39.19 154.638,41.407 " fill="#BE1817" style="stroke:;stroke-width:0.0;stroke-dasharray:;"/><path d="M167.138,29.107 A11.02,11.02 0 0 1 173.338,32.907 C176.108,36.775 176.358,40.808 174.088,45.007 A27.003,27.003 0 0 1 172.738,46.807 A11.44,11.44 0 0 1 166.438,50.007 A13.73,13.73 0 0 1 164.138,50.057 C159.015,49.317 155.848,46.434 154.638,41.407 C154.248,39.19 154.515,37.057 155.438,35.007 A15.172,15.172 0 0 1 156.988,32.607 C159.739,29.64 163.122,28.473 167.138,29.107 " fill="#FDFDFD" style="stroke:;stroke-width:0.0;stroke-dasharray:;"/><path d="M167.138,29.107 L184.638,29.107 L173.438,32.757 C173.382,32.795 173.349,32.845 173.338,32.907 A11.02,11.02 0 0 0 167.138,29.107 " fill="#E6B42C" style="stroke:;stroke-width:0.0;stroke-dasharray:;"/><path d="M184.638,29.107 L185.038,29.107 C187.49,33.919 188.173,38.986 187.088,44.307 C185.38,51.377 181.297,56.561 174.838,59.857 A22.36,22.36 0 0 1 163.938,62.007 L164.138,61.607 L172.738,46.807 A27.003,27.003 0 0 0 174.088,45.007 C176.358,40.808 176.108,36.775 173.338,32.907 C173.349,32.845 173.382,32.795 173.438,32.757 " fill="#FEC831" style="stroke:;stroke-width:0.0;stroke-dasharray:;"/><path d="M163.738,30.807 C167.561,30.494 170.511,31.927 172.588,35.107 C173.973,37.709 174.106,40.376 172.988,43.107 C170.91,47.021 167.66,48.671 163.238,48.057 C159.402,47.054 157.118,44.604 156.388,40.707 C156.169,35.407 158.619,32.107 163.738,30.807 " fill="#367BF0" style="stroke:;stroke-width:0.0;stroke-dasharray:;"/><path d="M172.738,46.807 L164.138,61.607 C164.076,61.565 164.042,61.499 164.038,61.407 L166.438,50.007 A11.44,11.44 0 0 0 172.738,46.807 " fill="#139156" style="stroke:;stroke-width:0.0;stroke-dasharray:;"/><text fill="#000000" font-family="sans-serif" font-size="14" lengthAdjust="spacing" textLength="58" x="138" y="74.9951">Browser</text><rect fill="none" height="75.2969" rx="2.5" ry="2.5" style="stroke:none;stroke-width:0.5;" width="76" x="127" y="454.8906"/><path d="M185.038,473.9976 L184.638,473.9976 L167.138,473.9976 C163.122,473.3636 159.739,474.5306 156.988,477.4976 A15.172,15.172 0 0 0 155.438,479.8976 A391.45,391.45 0 0 0 146.038,472.7976 A0.3,0.3 0 0 0 145.838,472.5976 C149.336,467.0776 154.303,463.6276 160.738,462.2476 C169.254,460.8966 176.404,463.3806 182.188,469.6976 A20.62,20.62 0 0 1 185.038,473.9976 " fill="#D31A1A" style="stroke:;stroke-width:0.0;stroke-dasharray:;"/><path d="M145.838,472.5976 A0.3,0.3 0 0 1 146.038,472.7976 L154.638,486.2976 C155.848,491.3246 159.015,494.2076 164.138,494.9476 A13.73,13.73 0 0 0 166.438,494.8976 L164.038,506.2976 C164.042,506.3896 164.076,506.4556 164.138,506.4976 L163.938,506.8976 C156.806,506.4076 151.089,503.3406 146.788,497.6976 C142.302,491.1306 141.336,484.0636 143.888,476.4976 C144.397,475.1146 145.047,473.8146 145.838,472.5976 " fill="#0FA05F" style="stroke:;stroke-width:0.0;stroke-dasharray:;"/><path d="M146.038,472.7976 A391.45,391.45 0 0 1 155.438,479.8976 C154.515,481.9476 154.248,484.0806 154.638,486.2976 " fill="#BE1817" style="stroke:;stroke-width:0.0;stroke-dasharray:;"/><path d="M167.138,473.9976 A11.02,11.02 0 0 1 173.338,477.7976 C176.108,481.6656 176.358,485.6986 174.088,489.8976 A27.003,27.003 0 0 1 172.738,491.6976 A11.44,11.44 0 0 1 166.438,494.8976 A13.73,13.73 0 0 1 164.138,494.9476 C159.015,494.2076 155.848,491.3246 154.638,486.2976 C154.248,484.0806 154.515,481.9476 155.438,479.8976 A15.172,15.172 0 0 1 156.988,477.4976 C159.739,474.5306 163.122,473.3636 167.138,473.9976 " fill="#FDFDFD" style="stroke:;stroke-width:0.0;stroke-dasharray:;"/><path d="M167.138,473.9976 L184.638,473.9976 L173.438,477.6476 C173.382,477.6856 173.349,477.7356 173.338,477.7976 A11.02,11.02 0 0 0 167.138,473.9976 " fill="#E6B42C" style="stroke:;stroke-width:0.0;stroke-dasharray:;"/><path d="M184.638,473.9976 L185.038,473.9976 C187.49,478.8096 188.173,483.8766 187.088,489.1976 C185.38,496.2676 181.297,501.4516 174.838,504.7476 A22.36,22.36 0 0 1 163.938,506.8976 L164.138,506.4976 L172.738,491.6976 A27.003,27.003 0 0 0 174.088,489.8976 C176.358,485.6986 176.108,481.6656 173.338,477.7976 C173.349,477.7356 173.382,477.6856 173.438,477.6476 " fill="#FEC831" style="stroke:;stroke-width:0.0;stroke-dasharray:;"/><path d="M163.738,475.6976 C167.561,475.3846 170.511,476.8176 172.588,479.9976 C173.973,482.5996 174.106,485.2666 172.988,487.9976 C170.91,491.9116 167.66,493.5616 163.238,492.9476 C159.402,491.9446 157.118,489.4946 156.388,485.5976 C156.169,480.2976 158.619,476.9976 163.738,475.6976 " fill="#367BF0" style="stroke:;stroke-width:0.0;stroke-dasharray:;"/><path d="M172.738,491.6976 L164.138,506.4976 C164.076,506.4556 164.042,506.3896 164.038,506.2976 L166.438,494.8976 A11.44,11.44 0 0 0 172.738,491.6976 " fill="#139156" style="stroke:;stroke-width:0.0;stroke-dasharray:;"/><text fill="#000000" font-family="sans-serif" font-size="14" lengthAdjust="spacing" textLength="58" x="138" y="519.8857">Browser</text><rect fill="none" height="77.2969" rx="2.5" ry="2.5" style="stroke:none;stroke-width:0.5;" width="108" x="280" y="8"/><path d="M333.921,15 C331.966,15.009 330.099,15.176 328.457,15.467 C323.618,16.322 322.739,18.111 322.739,21.411 L322.739,25.769 L334.174,25.769 L334.174,27.221 L322.74,27.221 L318.448,27.221 C315.125,27.221 312.215,29.218 311.305,33.018 C310.255,37.373 310.208,40.092 311.305,44.639 C312.118,48.024 314.059,50.436 317.382,50.436 L321.314,50.436 L321.314,45.212 C321.314,41.437 324.579,38.109 328.457,38.109 L339.878,38.109 C343.057,38.109 345.595,35.491 345.595,32.298 L345.595,21.411 C345.595,18.312 342.981,15.984 339.878,15.467 C337.914,15.14 335.876,14.991 333.921,15 M327.737,18.505 C328.918,18.505 329.883,19.485 329.883,20.69 C329.883,21.895 328.918,22.862 327.737,22.862 C326.556,22.862 325.591,21.891 325.591,20.69 C325.591,19.489 326.552,18.505 327.737,18.505 " fill="#306998" style="stroke:;stroke-width:0.0;stroke-dasharray:;"/><path d="M347.022,27.222 L347.022,32.3 C347.022,36.237 343.685,39.55 339.879,39.55 L328.457,39.55 C325.329,39.55 322.74,42.227 322.74,45.361 L322.74,56.25 C322.74,59.349 325.435,61.172 328.457,62.061 C332.076,63.125 335.548,63.318 339.878,62.061 C342.757,61.228 345.595,59.55 345.595,56.25 L345.595,51.892 L334.174,51.892 L334.174,50.44 L345.595,50.44 L351.312,50.44 C354.635,50.44 355.873,48.122 357.029,44.643 C358.223,41.061 358.172,37.616 357.029,33.022 C356.208,29.714 354.639,27.225 351.312,27.225 M340.598,54.795 C341.783,54.795 342.744,55.766 342.744,56.967 C342.744,58.168 341.783,59.152 340.598,59.152 C339.413,59.152 338.452,58.172 338.452,56.967 C338.452,55.762 339.417,54.795 340.598,54.795 " fill="#FFD43B" style="stroke:;stroke-width:0.0;stroke-dasharray:;"/><text fill="#000000" font-family="sans-serif" font-size="14" lengthAdjust="spacing" textLength="90" x="291" y="74.9951">Web Service</text><rect fill="none" height="77.2969" rx="2.5" ry="2.5" style="stroke:none;stroke-width:0.5;" width="108" x="280" y="454.8906"/><path d="M333.921,461.8906 C331.966,461.8996 330.099,462.0666 328.457,462.3576 C323.618,463.2126 322.739,465.0016 322.739,468.3016 L322.739,472.6596 L334.174,472.6596 L334.174,474.1116 L322.74,474.1116 L318.448,474.1116 C315.125,474.1116 312.215,476.1086 311.305,479.9086 C310.255,484.2636 310.208,486.9826 311.305,491.5296 C312.118,494.9146 314.059,497.3266 317.382,497.3266 L321.314,497.3266 L321.314,492.1026 C321.314,488.3276 324.579,484.9996 328.457,484.9996 L339.878,484.9996 C343.057,484.9996 345.595,482.3816 345.595,479.1886 L345.595,468.3016 C345.595,465.2026 342.981,462.8746 339.878,462.3576 C337.914,462.0306 335.876,461.8816 333.921,461.8906 M327.737,465.3956 C328.918,465.3956 329.883,466.3756 329.883,467.5806 C329.883,468.7856 328.918,469.7526 327.737,469.7526 C326.556,469.7526 325.591,468.7816 325.591,467.5806 C325.591,466.3796 326.552,465.3956 327.737,465.3956 " fill="#306998" style="stroke:;stroke-width:0.0;stroke-dasharray:;"/><path d="M347.022,474.1126 L347.022,479.1906 C347.022,483.1276 343.685,486.4406 339.879,486.4406 L328.457,486.4406 C325.329,486.4406 322.74,489.1176 322.74,492.2516 L322.74,503.1406 C322.74,506.2396 325.435,508.0626 328.457,508.9516 C332.076,510.0156 335.548,510.2086 339.878,508.9516 C342.757,508.1186 345.595,506.4406 345.595,503.1406 L345.595,498.7826 L334.174,498.7826 L334.174,497.3306 L345.595,497.3306 L351.312,497.3306 C354.635,497.3306 355.873,495.0126 357.029,491.5336 C358.223,487.9516 358.172,484.5066 357.029,479.9126 C356.208,476.6046 354.639,474.1156 351.312,474.1156 M340.598,501.6856 C341.783,501.6856 342.744,502.6566 342.744,503.8576 C342.744,505.0586 341.783,506.0426 340.598,506.0426 C339.413,506.0426 338.452,505.0626 338.452,503.8576 C338.452,502.6526 339.417,501.6856 340.598,501.6856 " fill="#FFD43B" style="stroke:;stroke-width:0.0;stroke-dasharray:;"/><text fill="#000000" font-family="sans-serif" font-size="14" lengthAdjust="spacing" textLength="90" x="291" y="521.8857">Web Service</text><rect fill="none" height="69.2969" rx="2.5" ry="2.5" style="stroke:none;stroke-width:0.5;" width="66" x="398" y="16"/><path d="M414.795,32.868 L420.511,23.002 L443.53,22.999 L449.215,32.963 L449.222,52.895 L443.531,62.853 L420.519,62.861 L414.737,52.896 " fill="#4D4D4D" style="stroke:;stroke-width:0.0;stroke-dasharray:;"/><path d="M414.738,52.893 L425.112,52.893 L419.414,42.852 L424.048,32.87 L414.796,32.868 L409,42.933 " fill="#EDEDED" style="stroke:;stroke-width:0.0;stroke-dasharray:;"/><path d="M428.258,52.893 L435.841,52.893 L442.546,43.12 L435.958,32.964 L427.038,32.964 L421.665,42.778 " fill="#E0E0E0" style="stroke:;stroke-width:0.0;stroke-dasharray:;"/><path d="M409,42.932 L414.738,52.896 L425.113,52.896 L419.477,42.966 " fill="#ACACAC" style="stroke:;stroke-width:0.0;stroke-dasharray:;"/><path d="M421.774,42.934 L428.259,52.896 L435.841,52.896 L442.441,42.938 " fill="#9E9E9E" style="stroke:;stroke-width:0.0;stroke-dasharray:;"/><path d="M424.342,42.939 L422.385,43.509 L420.507,42.938 L428.174,29.648 L430.092,32.966 " fill="#00B8E3" style="stroke:;stroke-width:0.0;stroke-dasharray:;"/><path d="M430.084,52.893 L428.176,56.225 L423.083,50.738 L420.503,42.941 L420.503,42.937 L424.341,42.937 " fill="#33C6E9" style="stroke:;stroke-width:0.0;stroke-dasharray:;"/><path d="M420.508,42.938 L420.504,42.938 L420.504,42.941 L418.587,46.263 L416.662,42.956 L418.614,39.57 L424.342,29.65 L428.176,29.65 " fill="#008AAA" style="stroke:;stroke-width:0.0;stroke-dasharray:;"/><path d="M441.604,52.893 L453.216,52.893 L453.209,32.963 L441.604,32.963 " fill="#D4D4D4" style="stroke:;stroke-width:0.0;stroke-dasharray:;"/><path d="M441.604,42.965 L441.604,52.895 L453.195,52.895 L453.195,42.965 " fill="#919191" style="stroke:;stroke-width:0.0;stroke-dasharray:;"/><path d="M428.178,56.229 L424.341,56.229 L418.587,46.262 L420.504,42.942 " fill="#00B8E3" style="stroke:;stroke-width:0.0;stroke-dasharray:;"/><path d="M443.519,42.938 L435.85,56.226 C435.145,55.19 433.937,52.896 433.937,52.896 L439.69,42.936 " fill="#008AAA" style="stroke:;stroke-width:0.0;stroke-dasharray:;"/><path d="M439.68,56.226 L435.85,56.225 L443.52,42.937 L445.436,39.619 L447.358,42.959 M443.519,42.938 L439.691,42.938 L433.936,32.965 L435.841,29.651 L440.499,35.573 " fill="#00B8E3" style="stroke:;stroke-width:0.0;stroke-dasharray:;"/><path d="M445.436,39.617 L445.436,39.62 L443.519,42.938 L435.842,29.652 L439.683,29.654 " fill="#33C6E9" style="stroke:;stroke-width:0.0;stroke-dasharray:;"/><text fill="#000000" font-family="sans-serif" font-size="14" lengthAdjust="spacing" textLength="48" x="409" y="74.9951">IDP KC</text><rect fill="none" height="69.2969" rx="2.5" ry="2.5" style="stroke:none;stroke-width:0.5;" width="66" x="398" y="454.8906"/><path d="M414.795,471.7586 L420.511,461.8926 L443.53,461.8896 L449.215,471.8536 L449.222,491.7856 L443.531,501.7436 L420.519,501.7516 L414.737,491.7866 " fill="#4D4D4D" style="stroke:;stroke-width:0.0;stroke-dasharray:;"/><path d="M414.738,491.7836 L425.112,491.7836 L419.414,481.7426 L424.048,471.7606 L414.796,471.7586 L409,481.8236 " fill="#EDEDED" style="stroke:;stroke-width:0.0;stroke-dasharray:;"/><path d="M428.258,491.7836 L435.841,491.7836 L442.546,482.0106 L435.958,471.8546 L427.038,471.8546 L421.665,481.6686 " fill="#E0E0E0" style="stroke:;stroke-width:0.0;stroke-dasharray:;"/><path d="M409,481.8226 L414.738,491.7866 L425.113,491.7866 L419.477,481.8566 " fill="#ACACAC" style="stroke:;stroke-width:0.0;stroke-dasharray:;"/><path d="M421.774,481.8246 L428.259,491.7866 L435.841,491.7866 L442.441,481.8286 " fill="#9E9E9E" style="stroke:;stroke-width:0.0;stroke-dasharray:;"/><path d="M424.342,481.8296 L422.385,482.3996 L420.507,481.8286 L428.174,468.5386 L430.092,471.8566 " fill="#00B8E3" style="stroke:;stroke-width:0.0;stroke-dasharray:;"/><path d="M430.084,491.7836 L428.176,495.1156 L423.083,489.6286 L420.503,481.8316 L420.503,481.8276 L424.341,481.8276 " fill="#33C6E9" style="stroke:;stroke-width:0.0;stroke-dasharray:;"/><path d="M420.508,481.8286 L420.504,481.8286 L420.504,481.8316 L418.587,485.1536 L416.662,481.8466 L418.614,478.4606 L424.342,468.5406 L428.176,468.5406 " fill="#008AAA" style="stroke:;stroke-width:0.0;stroke-dasharray:;"/><path d="M441.604,491.7836 L453.216,491.7836 L453.209,471.8536 L441.604,471.8536 " fill="#D4D4D4" style="stroke:;stroke-width:0.0;stroke-dasharray:;"/><path d="M441.604,481.8556 L441.604,491.7856 L453.195,491.7856 L453.195,481.8556 " fill="#919191" style="stroke:;stroke-width:0.0;stroke-dasharray:;"/><path d="M428.178,495.1196 L424.341,495.1196 L418.587,485.1526 L420.504,481.8326 " fill="#00B8E3" style="stroke:;stroke-width:0.0;stroke-dasharray:;"/><path d="M443.519,481.8286 L435.85,495.1166 C435.145,494.0806 433.937,491.7866 433.937,491.7866 L439.69,481.8266 " fill="#008AAA" style="stroke:;stroke-width:0.0;stroke-dasharray:;"/><path d="M439.68,495.1166 L435.85,495.1156 L443.52,481.8276 L445.436,478.5096 L447.358,481.8496 M443.519,481.8286 L439.691,481.8286 L433.936,471.8556 L435.841,468.5416 L440.499,474.4636 " fill="#00B8E3" style="stroke:;stroke-width:0.0;stroke-dasharray:;"/><path d="M445.436,478.5076 L445.436,478.5106 L443.519,481.8286 L435.842,468.5426 L439.683,468.5446 " fill="#33C6E9" style="stroke:;stroke-width:0.0;stroke-dasharray:;"/><text fill="#000000" font-family="sans-serif" font-size="14" lengthAdjust="spacing" textLength="48" x="409" y="513.8857">IDP KC</text><rect fill="#FFFFFF" height="350.5938" style="stroke:#181818;stroke-width:1.0;" width="10" x="30" y="96.2969"/><rect fill="#FFFFFF" height="145.6641" style="stroke:#181818;stroke-width:1.0;" width="10" x="160" y="117.4297"/><rect fill="#FFFFFF" height="145.6641" style="stroke:#181818;stroke-width:1.0;" width="10" x="160" y="292.2266"/><rect fill="#FFFFFF" height="29.1328" style="stroke:#181818;stroke-width:1.0;" width="10" x="329" y="146.5625"/><rect fill="#FFFFFF" height="29.1328" style="stroke:#181818;stroke-width:1.0;" width="10" x="329" y="379.625"/><rect fill="#FFFFFF" height="29.1328" style="stroke:#181818;stroke-width:1.0;" width="10" x="426" y="204.8281"/><rect fill="#FFFFFF" height="29.1328" style="stroke:#181818;stroke-width:1.0;" width="10" x="426" y="321.3594"/><polygon fill="#181818" points="148,113.4297,158,117.4297,148,121.4297,152,117.4297" style="stroke:#181818;stroke-width:1.0;"/><line style="stroke:#181818;stroke-width:1.0;" x1="40" x2="154" y1="117.4297" y2="117.4297"/><text fill="#000000" font-family="sans-serif" font-size="13" font-weight="bold" lengthAdjust="spacing" textLength="9" x="47" y="112.3638">1</text><text fill="#000000" font-family="sans-serif" font-size="13" lengthAdjust="spacing" textLength="62" x="60" y="112.3638">accesURL</text><polygon fill="#181818" points="317,142.5625,327,146.5625,317,150.5625,321,146.5625" style="stroke:#181818;stroke-width:1.0;"/><line style="stroke:#181818;stroke-width:1.0;" x1="170" x2="323" y1="146.5625" y2="146.5625"/><text fill="#000000" font-family="sans-serif" font-size="13" font-weight="bold" lengthAdjust="spacing" textLength="9" x="177" y="141.4966">2</text><text fill="#000000" font-family="sans-serif" font-size="13" lengthAdjust="spacing" textLength="77" x="190" y="141.4966">requeteHttp</text><polygon fill="#181818" points="181,171.6953,171,175.6953,181,179.6953,177,175.6953" style="stroke:#181818;stroke-width:1.0;"/><line style="stroke:#181818;stroke-width:1.0;stroke-dasharray:2.0,2.0;" x1="175" x2="333" y1="175.6953" y2="175.6953"/><text fill="#000000" font-family="sans-serif" font-size="13" font-weight="bold" lengthAdjust="spacing" textLength="9" x="187" y="170.6294">3</text><text fill="#000000" font-family="sans-serif" font-size="13" lengthAdjust="spacing" textLength="97" x="200" y="170.6294">redirectHttpIDP</text><polygon fill="#181818" points="414,200.8281,424,204.8281,414,208.8281,418,204.8281" style="stroke:#181818;stroke-width:1.0;"/><line style="stroke:#181818;stroke-width:1.0;" x1="170" x2="420" y1="204.8281" y2="204.8281"/><text fill="#000000" font-family="sans-serif" font-size="13" font-weight="bold" lengthAdjust="spacing" textLength="9" x="177" y="199.7622">4</text><text fill="#000000" font-family="sans-serif" font-size="13" lengthAdjust="spacing" textLength="77" x="190" y="199.7622">requeteHttp</text><polygon fill="#181818" points="181,229.9609,171,233.9609,181,237.9609,177,233.9609" style="stroke:#181818;stroke-width:1.0;"/><line style="stroke:#181818;stroke-width:1.0;stroke-dasharray:2.0,2.0;" x1="175" x2="430" y1="233.9609" y2="233.9609"/><text fill="#000000" font-family="sans-serif" font-size="13" font-weight="bold" lengthAdjust="spacing" textLength="9" x="187" y="228.895">5</text><text fill="#000000" font-family="sans-serif" font-size="13" lengthAdjust="spacing" textLength="59" x="200" y="228.895">mireHtml</text><polygon fill="#181818" points="51,259.0938,41,263.0938,51,267.0938,47,263.0938" style="stroke:#181818;stroke-width:1.0;"/><line style="stroke:#181818;stroke-width:1.0;stroke-dasharray:2.0,2.0;" x1="45" x2="164" y1="263.0938" y2="263.0938"/><text fill="#000000" font-family="sans-serif" font-size="13" font-weight="bold" lengthAdjust="spacing" textLength="9" x="57" y="258.0278">6</text><text fill="#000000" font-family="sans-serif" font-size="13" lengthAdjust="spacing" textLength="75" x="70" y="258.0278">dessineMire</text><polygon fill="#181818" points="148,288.2266,158,292.2266,148,296.2266,152,292.2266" style="stroke:#181818;stroke-width:1.0;"/><line style="stroke:#181818;stroke-width:1.0;" x1="40" x2="154" y1="292.2266" y2="292.2266"/><text fill="#000000" font-family="sans-serif" font-size="13" font-weight="bold" lengthAdjust="spacing" textLength="9" x="47" y="287.1606">7</text><text fill="#000000" font-family="sans-serif" font-size="13" lengthAdjust="spacing" textLength="70" x="60" y="287.1606">credentials</text><polygon fill="#181818" points="414,317.3594,424,321.3594,414,325.3594,418,321.3594" style="stroke:#181818;stroke-width:1.0;"/><line style="stroke:#181818;stroke-width:1.0;" x1="170" x2="420" y1="321.3594" y2="321.3594"/><text fill="#000000" font-family="sans-serif" font-size="13" font-weight="bold" lengthAdjust="spacing" textLength="9" x="177" y="316.2935">8</text><text fill="#000000" font-family="sans-serif" font-size="13" lengthAdjust="spacing" textLength="29" x="190" y="316.2935">auth</text><polygon fill="#181818" points="181,346.4922,171,350.4922,181,354.4922,177,350.4922" style="stroke:#181818;stroke-width:1.0;"/><line style="stroke:#181818;stroke-width:1.0;stroke-dasharray:2.0,2.0;" x1="175" x2="430" y1="350.4922" y2="350.4922"/><text fill="#000000" font-family="sans-serif" font-size="13" font-weight="bold" lengthAdjust="spacing" textLength="9" x="187" y="345.4263">9</text><text fill="#000000" font-family="sans-serif" font-size="13" lengthAdjust="spacing" textLength="101" x="200" y="345.4263">redirectHttpAPP</text><polygon fill="#181818" points="317,375.625,327,379.625,317,383.625,321,379.625" style="stroke:#181818;stroke-width:1.0;"/><line style="stroke:#181818;stroke-width:1.0;" x1="170" x2="323" y1="379.625" y2="379.625"/><text fill="#000000" font-family="sans-serif" font-size="13" font-weight="bold" lengthAdjust="spacing" textLength="18" x="177" y="374.5591">10</text><text fill="#000000" font-family="sans-serif" font-size="13" lengthAdjust="spacing" textLength="118" x="199" y="374.5591">requeteHttp-token</text><polygon fill="#181818" points="181,404.7578,171,408.7578,181,412.7578,177,408.7578" style="stroke:#181818;stroke-width:1.0;"/><line style="stroke:#181818;stroke-width:1.0;stroke-dasharray:2.0,2.0;" x1="175" x2="333" y1="408.7578" y2="408.7578"/><text fill="#000000" font-family="sans-serif" font-size="13" font-weight="bold" lengthAdjust="spacing" textLength="18" x="187" y="403.6919">11</text><text fill="#000000" font-family="sans-serif" font-size="13" lengthAdjust="spacing" textLength="82" x="209" y="403.6919">reponseHtml</text><polygon fill="#181818" points="51,433.8906,41,437.8906,51,441.8906,47,437.8906" style="stroke:#181818;stroke-width:1.0;"/><line style="stroke:#181818;stroke-width:1.0;stroke-dasharray:2.0,2.0;" x1="45" x2="164" y1="437.8906" y2="437.8906"/><text fill="#000000" font-family="sans-serif" font-size="13" font-weight="bold" lengthAdjust="spacing" textLength="18" x="57" y="432.8247">12</text><text fill="#000000" font-family="sans-serif" font-size="13" lengthAdjust="spacing" textLength="74" x="79" y="432.8247">dessineAPP</text><!--SRC=[ZP7TJeGm48NlUOhPZRVu0CHiui_56ZKXceqttfGoaGRwOpl5yFPETq5MJD0Roao_CpsdtIWZkrWZw24FpYl2SEcYxhBDj15QPPpmGeyR6HUaf7B246olBc90ltipSE1r2o90QYoXzrmstcfCu8stdnDRdVwNk1keiIR1hrZ12_fUIJmA6ExHNvVbKg9gbxSuoCwADWdlxqfuk3tJS2FBH2HhegxuI2uagLuGdXod3-IxoL81GaeCX-V7cPlSZckYl_qKuF4Z8k6UoCsIsQz7YjumLIkFaXAMBFsQnStLMKaqpj8yQK_y9cCDDOQW33vnd_Cj4a41aaz7GqfquH-fZaxunfeL2-TnKie_hoOdsw9PlI1dJVYHQup5q1S0]--></g></svg>