<?xml version="1.0" encoding="UTF-8" standalone="no"?>
<svg
   contentStyleType="text/css"
   height="578.60803"
   preserveAspectRatio="none"
   version="1.1"
   viewBox="0 0 435 578.60803"
   width="435"
   zoomAndPan="magnify"
   id="svg1627"
   sodipodi:docname="sequence-idp-with-logo.svg"
   inkscape:version="1.2.2 (b0a8486541, 2022-12-01)"
   xmlns:inkscape="http://www.inkscape.org/namespaces/inkscape"
   xmlns:sodipodi="http://sodipodi.sourceforge.net/DTD/sodipodi-0.dtd"
   xmlns="http://www.w3.org/2000/svg"
   xmlns:svg="http://www.w3.org/2000/svg">
  <sodipodi:namedview
     id="namedview1629"
     pagecolor="#ffffff"
     bordercolor="#000000"
     borderopacity="0.25"
     inkscape:showpageshadow="2"
     inkscape:pageopacity="0.0"
     inkscape:pagecheckerboard="0"
     inkscape:deskcolor="#d1d1d1"
     showgrid="false"
     inkscape:zoom="0.92535675"
     inkscape:cx="243.14947"
     inkscape:cy="363.64353"
     inkscape:window-width="1883"
     inkscape:window-height="1055"
     inkscape:window-x="37"
     inkscape:window-y="0"
     inkscape:window-maximized="1"
     inkscape:current-layer="svg1627" />
  <defs
     id="defs1363" />
  <g
     id="g1625"
     transform="translate(-5,-5)">
    <rect
       fill="#ffffff"
       height="381.4722"
       style="stroke:#181818;stroke-width:1"
       width="10"
       x="30"
       y="105.0679"
       id="rect1365" />
    <rect
       fill="#ffffff"
       height="158.53011"
       style="stroke:#181818;stroke-width:1"
       width="10"
       x="151"
       y="128.7739"
       id="rect1367" />
    <rect
       fill="#ffffff"
       height="158.53011"
       style="stroke:#181818;stroke-width:1"
       width="10"
       x="151"
       y="319.01001"
       id="rect1369" />
    <rect
       fill="#ffffff"
       height="31.705999"
       style="stroke:#181818;stroke-width:1"
       width="10"
       x="312"
       y="160.4799"
       id="rect1371" />
    <rect
       fill="#ffffff"
       height="31.705999"
       style="stroke:#181818;stroke-width:1"
       width="10"
       x="312"
       y="414.12811"
       id="rect1373" />
    <rect
       fill="#ffffff"
       height="31.705999"
       style="stroke:#181818;stroke-width:1"
       width="10"
       x="403.5"
       y="223.892"
       id="rect1375" />
    <rect
       fill="#ffffff"
       height="31.705999"
       style="stroke:#181818;stroke-width:1"
       width="10"
       x="403.5"
       y="350.716"
       id="rect1377" />
    <line
       style="stroke:#181818;stroke-width:0.5;stroke-dasharray:5, 5"
       x1="35"
       x2="35"
       y1="95.067902"
       y2="495.5401"
       id="line1379" />
    <line
       style="stroke:#181818;stroke-width:0.5;stroke-dasharray:5, 5"
       x1="155.5"
       x2="155.5"
       y1="95.067902"
       y2="495.5401"
       id="line1381" />
    <line
       style="stroke:#181818;stroke-width:0.5;stroke-dasharray:5, 5"
       x1="317"
       x2="317"
       y1="95.067902"
       y2="495.5401"
       id="line1383" />
    <line
       style="stroke:#181818;stroke-width:0.5;stroke-dasharray:5, 5"
       x1="408"
       x2="408"
       y1="95.067902"
       y2="495.5401"
       id="line1385" />
    <rect
       fill="none"
       height="83.067902"
       rx="2.5"
       ry="2.5"
       style="stroke:none;stroke-width:0.5"
       width="60"
       x="5"
       y="11"
       id="rect1387" />
    <path
       d="M 35,42.89 C 28.97,42.89 23.6,37.85 23.6,30.13 23.6,24.14 28.14,18 34.79,18 c 6.49,0 11.24,5.94 11.24,12.42 0,7.49 -5.6,12.47 -11.03,12.47 M 12,68 c 0.52,-5.52 1.22,-13.06 2.54,-16.87 0.61,-1.73 1.5,-2.97 2.93,-4.01 0.93,-0.69 4.23,-2.51 4.84,-2.81 1.06,-0.55 2.15,-0.84 3.09,0 5.6,4.95 13.34,4.8 19.02,0.02 0.66,-0.68 1.7,-0.5 2.39,-0.23 1.09,0.42 4.57,2.47 5.23,2.89 1.92,1.26 2.96,2.94 3.73,6.1 0.98,4.27 1.56,9.7 2.23,14.91"
       fill="#505050"
       style="stroke-width:0"
       id="path1389" />
    <text
       fill="#000000"
       font-family="sans-serif"
       font-size="14px"
       lengthAdjust="spacing"
       textLength="31"
       x="21.5"
       y="82.965897"
       id="text1391">User</text>
    <rect
       fill="none"
       height="83.067902"
       rx="2.5"
       ry="2.5"
       style="stroke:none;stroke-width:0.5"
       width="60"
       x="5"
       y="494.5401"
       id="rect1393" />
    <path
       d="m 35,526.4301 c -6.03,0 -11.4,-5.04 -11.4,-12.76 0,-5.99 4.54,-12.13 11.19,-12.13 6.49,0 11.24,5.94 11.24,12.42 0,7.49 -5.6,12.47 -11.03,12.47 m -23,25.11 c 0.52,-5.52 1.22,-13.06 2.54,-16.87 0.61,-1.73 1.5,-2.97 2.93,-4.01 0.93,-0.69 4.23,-2.51 4.84,-2.81 1.06,-0.55 2.15,-0.84 3.09,0 5.6,4.95 13.34,4.8 19.02,0.02 0.66,-0.68 1.7,-0.5 2.39,-0.23 1.09,0.42 4.57,2.47 5.23,2.89 1.92,1.26 2.96,2.94 3.73,6.1 0.98,4.27 1.56,9.7 2.23,14.91"
       fill="#505050"
       style="stroke-width:0"
       id="path1395" />
    <text
       fill="#000000"
       font-family="sans-serif"
       font-size="14px"
       lengthAdjust="spacing"
       textLength="31"
       x="21.5"
       y="566.5061"
       id="text1397">User</text>
    <rect
       fill="none"
       height="78.067902"
       rx="2.5"
       ry="2.5"
       style="stroke:none;stroke-width:0.5"
       width="73"
       x="119.5"
       y="16"
       id="rect1399" />
    <path
       d="m 176.038,35.107 h -0.4 -17.5 c -4.016,-0.634 -7.399,0.533 -10.15,3.5 a 15.172,15.172 0 0 0 -1.55,2.4 391.45,391.45 0 0 0 -9.4,-7.1 0.3,0.3 0 0 0 -0.2,-0.2 c 3.498,-5.52 8.465,-8.97 14.9,-10.35 8.516,-1.351 15.666,1.133 21.45,7.45 a 20.62,20.62 0 0 1 2.85,4.3"
       fill="#d31a1a"
       style="stroke-width:0"
       id="path1401" />
    <path
       d="m 136.838,33.707 a 0.3,0.3 0 0 1 0.2,0.2 l 8.6,13.5 c 1.21,5.027 4.377,7.91 9.5,8.65 a 13.73,13.73 0 0 0 2.3,-0.05 l -2.4,11.4 c 0.004,0.092 0.038,0.158 0.1,0.2 l -0.2,0.4 c -7.132,-0.49 -12.849,-3.557 -17.15,-9.2 -4.486,-6.567 -5.452,-13.634 -2.9,-21.2 0.509,-1.383 1.159,-2.683 1.95,-3.9"
       fill="#0fa05f"
       style="stroke-width:0"
       id="path1403" />
    <path
       d="m 137.038,33.907 a 391.45,391.45 0 0 1 9.4,7.1 c -0.923,2.05 -1.19,4.183 -0.8,6.4"
       fill="#be1817"
       style="stroke-width:0"
       id="path1405" />
    <path
       d="m 158.138,35.107 a 11.02,11.02 0 0 1 6.2,3.8 c 2.77,3.868 3.02,7.901 0.75,12.1 a 27.003,27.003 0 0 1 -1.35,1.8 11.44,11.44 0 0 1 -6.3,3.2 13.73,13.73 0 0 1 -2.3,0.05 c -5.123,-0.74 -8.29,-3.623 -9.5,-8.65 -0.39,-2.217 -0.123,-4.35 0.8,-6.4 a 15.172,15.172 0 0 1 1.55,-2.4 c 2.751,-2.967 6.134,-4.134 10.15,-3.5"
       fill="#fdfdfd"
       style="stroke-width:0"
       id="path1407" />
    <path
       d="m 158.138,35.107 h 17.5 l -11.2,3.65 c -0.056,0.038 -0.089,0.088 -0.1,0.15 a 11.02,11.02 0 0 0 -6.2,-3.8"
       fill="#e6b42c"
       style="stroke-width:0"
       id="path1409" />
    <path
       d="m 175.638,35.107 h 0.4 c 2.452,4.812 3.135,9.879 2.05,15.2 -1.708,7.07 -5.791,12.254 -12.25,15.55 a 22.36,22.36 0 0 1 -10.9,2.15 l 0.2,-0.4 8.6,-14.8 a 27.003,27.003 0 0 0 1.35,-1.8 c 2.27,-4.199 2.02,-8.232 -0.75,-12.1 0.011,-0.062 0.044,-0.112 0.1,-0.15"
       fill="#fec831"
       style="stroke-width:0"
       id="path1411" />
    <path
       d="m 154.738,36.807 c 3.823,-0.313 6.773,1.12 8.85,4.3 1.385,2.602 1.518,5.269 0.4,8 -2.078,3.914 -5.328,5.564 -9.75,4.95 -3.836,-1.003 -6.12,-3.453 -6.85,-7.35 -0.219,-5.3 2.231,-8.6 7.35,-9.9"
       fill="#367bf0"
       style="stroke-width:0"
       id="path1413" />
    <path
       d="m 163.738,52.807 -8.6,14.8 c -0.062,-0.042 -0.096,-0.108 -0.1,-0.2 l 2.4,-11.4 a 11.44,11.44 0 0 0 6.3,-3.2"
       fill="#139156"
       style="stroke-width:0"
       id="path1415" />
    <text
       fill="#000000"
       font-family="sans-serif"
       font-size="14px"
       lengthAdjust="spacing"
       textLength="55"
       x="130.5"
       y="82.965897"
       id="text1417">Browser</text>
    <rect
       fill="none"
       height="78.067902"
       rx="2.5"
       ry="2.5"
       style="stroke:none;stroke-width:0.5"
       width="73"
       x="119.5"
       y="494.5401"
       id="rect1419" />
    <path
       d="m 176.038,513.6471 h -0.4 -17.5 c -4.016,-0.634 -7.399,0.533 -10.15,3.5 a 15.172,15.172 0 0 0 -1.55,2.4 391.45,391.45 0 0 0 -9.4,-7.1 0.3,0.3 0 0 0 -0.2,-0.2 c 3.498,-5.52 8.465,-8.97 14.9,-10.35 8.516,-1.351 15.666,1.133 21.45,7.45 a 20.62,20.62 0 0 1 2.85,4.3"
       fill="#d31a1a"
       style="stroke-width:0"
       id="path1421" />
    <path
       d="m 136.838,512.2471 a 0.3,0.3 0 0 1 0.2,0.2 l 8.6,13.5 c 1.21,5.027 4.377,7.91 9.5,8.65 a 13.73,13.73 0 0 0 2.3,-0.05 l -2.4,11.4 c 0.004,0.092 0.038,0.158 0.1,0.2 l -0.2,0.4 c -7.132,-0.49 -12.849,-3.557 -17.15,-9.2 -4.486,-6.567 -5.452,-13.634 -2.9,-21.2 0.509,-1.383 1.159,-2.683 1.95,-3.9"
       fill="#0fa05f"
       style="stroke-width:0"
       id="path1423" />
    <path
       d="m 137.038,512.4471 a 391.45,391.45 0 0 1 9.4,7.1 c -0.923,2.05 -1.19,4.183 -0.8,6.4"
       fill="#be1817"
       style="stroke-width:0"
       id="path1425" />
    <path
       d="m 158.138,513.6471 a 11.02,11.02 0 0 1 6.2,3.8 c 2.77,3.868 3.02,7.901 0.75,12.1 a 27.003,27.003 0 0 1 -1.35,1.8 11.44,11.44 0 0 1 -6.3,3.2 13.73,13.73 0 0 1 -2.3,0.05 c -5.123,-0.74 -8.29,-3.623 -9.5,-8.65 -0.39,-2.217 -0.123,-4.35 0.8,-6.4 a 15.172,15.172 0 0 1 1.55,-2.4 c 2.751,-2.967 6.134,-4.134 10.15,-3.5"
       fill="#fdfdfd"
       style="stroke-width:0"
       id="path1427" />
    <path
       d="m 158.138,513.6471 h 17.5 l -11.2,3.65 c -0.056,0.038 -0.089,0.088 -0.1,0.15 a 11.02,11.02 0 0 0 -6.2,-3.8"
       fill="#e6b42c"
       style="stroke-width:0"
       id="path1429" />
    <path
       d="m 175.638,513.6471 h 0.4 c 2.452,4.812 3.135,9.879 2.05,15.2 -1.708,7.07 -5.791,12.254 -12.25,15.55 a 22.36,22.36 0 0 1 -10.9,2.15 l 0.2,-0.4 8.6,-14.8 a 27.003,27.003 0 0 0 1.35,-1.8 c 2.27,-4.199 2.02,-8.232 -0.75,-12.1 0.011,-0.062 0.044,-0.112 0.1,-0.15"
       fill="#fec831"
       style="stroke-width:0"
       id="path1431" />
    <path
       d="m 154.738,515.3471 c 3.823,-0.313 6.773,1.12 8.85,4.3 1.385,2.602 1.518,5.269 0.4,8 -2.078,3.914 -5.328,5.564 -9.75,4.95 -3.836,-1.003 -6.12,-3.453 -6.85,-7.35 -0.219,-5.3 2.231,-8.6 7.35,-9.9"
       fill="#367bf0"
       style="stroke-width:0"
       id="path1433" />
    <path
       d="m 163.738,531.3471 -8.6,14.8 c -0.062,-0.042 -0.096,-0.108 -0.1,-0.2 l 2.4,-11.4 a 11.44,11.44 0 0 0 6.3,-3.2"
       fill="#139156"
       style="stroke-width:0"
       id="path1435" />
    <text
       fill="#000000"
       font-family="sans-serif"
       font-size="14px"
       lengthAdjust="spacing"
       textLength="55"
       x="130.5"
       y="561.5061"
       id="text1437">Browser</text>
    <rect
       fill="none"
       height="89.067902"
       rx="2.5"
       ry="2.5"
       style="stroke:none;stroke-width:0.5"
       width="100"
       x="267"
       y="5"
       id="rect1439" />
    <path
       d="m 320.79,51.1 -3.1,-1.27 c -0.44,-0.25 -0.63,-0.61 -0.45,-1.12 l 1.18,-2.8 c 0.25,-0.42 0.59,-0.67 1.11,-0.46 l 2.9,1.45 c 0.92,-1.09 1.92,-2.16 3.05,-3.1 l -1.27,-3.08 c -0.1,-0.37 -0.14,-0.73 0.41,-1.08 l 2.9,-1.21 c 0.55,-0.18 0.86,0.06 1.05,0.38 l 1.3,3.16 c 1.31,-0.25 2.6,-0.37 4.12,0.07 l 1.31,-3.2 c 0.28,-0.45 0.65,-0.57 1.08,-0.41 l 2.89,1.22 c 0.48,0.29 0.53,0.65 0.41,1.03 l -1.29,3.16 c 1.14,0.9 2.17,1.86 3.01,2.94 l 3.11,-1.26 c 0.56,-0.15 0.89,0.06 1.1,0.47 l 1.22,2.87 c 0.08,0.42 -0.01,0.78 -0.44,1.02 l -3.16,1.27 c 0.15,1.23 0.13,2.77 0,4.12 l 3.16,1.27 c 0.42,0.26 0.61,0.6 0.48,1.05 l -1.15,2.69 c -0.23,0.35 -0.54,0.53 -1,0.41 l -3.19,-1.28 c -0.84,1.14 -1.88,2.15 -3.06,3.04 l 1.27,3.09 c 0.19,0.49 -0.06,0.91 -0.37,1.06 l -3.05,1.27 c -0.41,0.08 -0.78,0.04 -0.96,-0.47 l -1.29,-3.16 c -1.18,0.32 -2.62,0.41 -4.11,0.03 l -1.29,3.12 c -0.2,0.33 -0.43,0.61 -1,0.47 l -2.98,-1.23 c -0.43,-0.3 -0.62,-0.67 -0.35,-1.18 l 1.42,-2.81 c -1.25,-0.94 -2.3,-1.94 -3.12,-3.01 l -3.05,1.25 c -0.48,0.17 -0.86,0.06 -1.14,-0.38 l -1.22,-2.9 c -0.13,-0.39 -0.03,-0.84 0.42,-1.06 l 3.16,-1.36 c -0.13,-1.35 -0.14,-2.72 -0.02,-4.08 m 3.4,1.98 c 0,4.82 4,7.81 7.9,7.81 4.24,0 7.75,-3.58 7.75,-7.74 0,-4.46 -3.78,-7.81 -7.73,-7.81 -3.86,0 -7.92,2.9 -7.92,7.74 m -28.8,-34.93 c 2.64,-2.21 5.21,-3.7 7.74,-4.63 -1.29,1.51 -2.61,3.44 -3.99,6.42 -1.41,-0.6 -2.69,-1.19 -3.75,-1.79 m -6.94,10.99 c 1.06,-3.54 2.85,-6.51 5.16,-9.06 1.67,1.12 3.2,1.71 4.74,2.42 -1.28,3.49 -1.85,7.37 -2.05,10.61 -2.48,-0.88 -4.96,-1.8 -7.85,-3.97 m -0.42,12.81 c -0.81,-2.9 -1.03,-6.23 -0.35,-10.21 2.35,1.44 4.99,2.8 8.46,3.96 -0.01,3.9 0.37,7.48 1.18,10.73 -2.55,-0.71 -5.48,-1.96 -9.29,-4.48 m 10.15,7.54 c 1.74,5.28 3.59,7.52 5.45,9.65 -8.11,-3.04 -12.07,-8.57 -14.26,-13.29 2.88,1.49 5.77,2.98 8.81,3.64 m 12.27,1.96 v 9.08 c -1.82,-0.39 -3.34,-1.38 -4.67,-2.72 -2.12,-2.16 -3.55,-4.76 -4.61,-7.38 3.08,0.62 6.16,1.08 9.28,1.02 m 0,-13.33 0.01,10.62 c -3.4,0.09 -6.78,-0.49 -10.18,-1.36 -1.07,-3.78 -1.54,-7.39 -1.52,-10.88 3.84,1.05 7.74,1.54 11.69,1.62 m 0.13,-2.53 c -4.43,-0.17 -8.3,-0.76 -11.71,-1.69 0.23,-3.09 0.31,-6.02 2.05,-10.61 3.85,1.2 8.31,1.54 9.67,1.51 m -0.14,-2.42 c -2.95,-0.13 -5.86,-0.61 -8.73,-1.43 0.96,-2.34 2.2,-4.49 3.91,-6.3 1.03,-1.02 2.16,-1.98 3.8,-2.52 h 1.02 M 312.9,12 h 1.02 c 2.33,0.77 3.96,2.59 4.91,3.77 1.42,1.79 2.2,3.43 2.94,5.06 -2.38,0.67 -5.14,1.28 -8.87,1.42 m 0.26,13.32 V 24.82 c 3.3,-0.16 6.52,-0.61 9.65,-1.54 1.06,3.1 1.64,6.77 2.06,10.61 -3.6,1.04 -7.54,1.54 -11.71,1.68 m -0.15,13.26 v -10.6 c 3.16,0.08 7.28,-0.63 11.73,-1.62 v 0.62 c -0.56,0.2 -0.99,0.36 -1.36,0.59 -1.54,1.04 -1.53,2.67 -1.23,3.57 l 0.75,1.72 -0.85,0.83 -1.66,-0.72 c -1.47,-0.51 -2.89,0.12 -3.64,1.29 l -1.4,3.25 c -0.12,0.34 -0.21,0.66 -0.19,0.96 -1.05,0.14 -1.46,0.09 -2.15,0.11 m 3.52,2.69 2.07,0.9 v 1.2 l -1.79,0.75 c -1.16,0.6 -2.1,2.03 -1.51,3.74 l 0.47,1.12 c -0.76,0.63 -1.85,0.98 -2.74,1.18 v -9.1 c 1.03,-0.03 1.57,-0.02 3.04,-0.18 m 11.31,-15.55 c 3.24,-0.97 6.01,-2.25 8.29,-3.84 0.26,1.67 0.41,2.75 0.41,4.33 -1.11,-0.06 -2.32,0.58 -2.87,1.7 l -0.66,1.74 h -1.28 l -0.7,-1.7 c -0.42,-0.83 -1.46,-1.87 -3.22,-1.63 m -2.09,-13.7 c 1.7,-0.69 3.29,-1.48 4.77,-2.4 3.46,3.92 4.24,6.54 5.14,9.04 -2.44,1.66 -5,3.08 -7.84,3.95 -0.3,-3.21 -0.75,-6.54 -2.07,-10.59 m -4.88,-8.97 c 3.24,1.15 5.59,2.84 7.57,4.76 -1.12,0.63 -2.33,1.25 -3.73,1.8 -1.4,-3.35 -2.64,-5.13 -3.84,-6.56"
       fill="#505050"
       style="stroke-width:0"
       id="path1441" />
    <text
       fill="#000000"
       font-family="sans-serif"
       font-size="14px"
       lengthAdjust="spacing"
       textLength="82"
       x="278"
       y="82.965897"
       id="text1443">Web Service</text>
    <rect
       fill="none"
       height="89.067902"
       rx="2.5"
       ry="2.5"
       style="stroke:none;stroke-width:0.5"
       width="100"
       x="267"
       y="494.5401"
       id="rect1445" />
    <path
       d="m 320.79,540.6401 -3.1,-1.27 c -0.44,-0.25 -0.63,-0.61 -0.45,-1.12 l 1.18,-2.8 c 0.25,-0.42 0.59,-0.67 1.11,-0.46 l 2.9,1.45 c 0.92,-1.09 1.92,-2.16 3.05,-3.1 l -1.27,-3.08 c -0.1,-0.37 -0.14,-0.73 0.41,-1.08 l 2.9,-1.21 c 0.55,-0.18 0.86,0.06 1.05,0.38 l 1.3,3.16 c 1.31,-0.25 2.6,-0.37 4.12,0.07 l 1.31,-3.2 c 0.28,-0.45 0.65,-0.57 1.08,-0.41 l 2.89,1.22 c 0.48,0.29 0.53,0.65 0.41,1.03 l -1.29,3.16 c 1.14,0.9 2.17,1.86 3.01,2.94 l 3.11,-1.26 c 0.56,-0.15 0.89,0.06 1.1,0.47 l 1.22,2.87 c 0.08,0.42 -0.01,0.78 -0.44,1.02 l -3.16,1.27 c 0.15,1.23 0.13,2.77 0,4.12 l 3.16,1.27 c 0.42,0.26 0.61,0.6 0.48,1.05 l -1.15,2.69 c -0.23,0.35 -0.54,0.53 -1,0.41 l -3.19,-1.28 c -0.84,1.14 -1.88,2.15 -3.06,3.04 l 1.27,3.09 c 0.19,0.49 -0.06,0.91 -0.37,1.06 l -3.05,1.27 c -0.41,0.08 -0.78,0.04 -0.96,-0.47 l -1.29,-3.16 c -1.18,0.32 -2.62,0.41 -4.11,0.03 l -1.29,3.12 c -0.2,0.33 -0.43,0.61 -1,0.47 l -2.98,-1.23 c -0.43,-0.3 -0.62,-0.67 -0.35,-1.18 l 1.42,-2.81 c -1.25,-0.94 -2.3,-1.94 -3.12,-3.01 l -3.05,1.25 c -0.48,0.17 -0.86,0.06 -1.14,-0.38 l -1.22,-2.9 c -0.13,-0.39 -0.03,-0.84 0.42,-1.06 l 3.16,-1.36 c -0.13,-1.35 -0.14,-2.72 -0.02,-4.08 m 3.4,1.98 c 0,4.82 4,7.81 7.9,7.81 4.24,0 7.75,-3.58 7.75,-7.74 0,-4.46 -3.78,-7.81 -7.73,-7.81 -3.86,0 -7.92,2.9 -7.92,7.74 m -28.8,-34.93 c 2.64,-2.21 5.21,-3.7 7.74,-4.63 -1.29,1.51 -2.61,3.44 -3.99,6.42 -1.41,-0.6 -2.69,-1.19 -3.75,-1.79 m -6.94,10.99 c 1.06,-3.54 2.85,-6.51 5.16,-9.06 1.67,1.12 3.2,1.71 4.74,2.42 -1.28,3.49 -1.85,7.37 -2.05,10.61 -2.48,-0.88 -4.96,-1.8 -7.85,-3.97 m -0.42,12.81 c -0.81,-2.9 -1.03,-6.23 -0.35,-10.21 2.35,1.44 4.99,2.8 8.46,3.96 -0.01,3.9 0.37,7.48 1.18,10.73 -2.55,-0.71 -5.48,-1.96 -9.29,-4.48 m 10.15,7.54 c 1.74,5.28 3.59,7.52 5.45,9.65 -8.11,-3.04 -12.07,-8.57 -14.26,-13.29 2.88,1.49 5.77,2.98 8.81,3.64 m 12.27,1.96 v 9.08 c -1.82,-0.39 -3.34,-1.38 -4.67,-2.72 -2.12,-2.16 -3.55,-4.76 -4.61,-7.38 3.08,0.62 6.16,1.08 9.28,1.02 m 0,-13.33 0.01,10.62 c -3.4,0.09 -6.78,-0.49 -10.18,-1.36 -1.07,-3.78 -1.54,-7.39 -1.52,-10.88 3.84,1.05 7.74,1.54 11.69,1.62 m 0.13,-2.53 c -4.43,-0.17 -8.3,-0.76 -11.71,-1.69 0.23,-3.09 0.31,-6.02 2.05,-10.61 3.85,1.2 8.31,1.54 9.67,1.51 m -0.14,-2.42 c -2.95,-0.13 -5.86,-0.61 -8.73,-1.43 0.96,-2.34 2.2,-4.49 3.91,-6.3 1.03,-1.02 2.16,-1.98 3.8,-2.52 h 1.02 m 2.45,-0.13 h 1.02 c 2.33,0.77 3.96,2.59 4.91,3.77 1.42,1.79 2.2,3.43 2.94,5.06 -2.38,0.67 -5.14,1.28 -8.87,1.42 m 0.26,13.32 v -10.75 c 3.3,-0.16 6.52,-0.61 9.65,-1.54 1.06,3.1 1.64,6.77 2.06,10.61 -3.6,1.04 -7.54,1.54 -11.71,1.68 m -0.15,13.26 v -10.6 c 3.16,0.08 7.28,-0.63 11.73,-1.62 v 0.62 c -0.56,0.2 -0.99,0.36 -1.36,0.59 -1.54,1.04 -1.53,2.67 -1.23,3.57 l 0.75,1.72 -0.85,0.83 -1.66,-0.72 c -1.47,-0.51 -2.89,0.12 -3.64,1.29 l -1.4,3.25 c -0.12,0.34 -0.21,0.66 -0.19,0.96 -1.05,0.14 -1.46,0.09 -2.15,0.11 m 3.52,2.69 2.07,0.9 v 1.2 l -1.79,0.75 c -1.16,0.6 -2.1,2.03 -1.51,3.74 l 0.47,1.12 c -0.76,0.63 -1.85,0.98 -2.74,1.18 v -9.1 c 1.03,-0.03 1.57,-0.02 3.04,-0.18 m 11.31,-15.55 c 3.24,-0.97 6.01,-2.25 8.29,-3.84 0.26,1.67 0.41,2.75 0.41,4.33 -1.11,-0.06 -2.32,0.58 -2.87,1.7 l -0.66,1.74 h -1.28 l -0.7,-1.7 c -0.42,-0.83 -1.46,-1.87 -3.22,-1.63 m -2.09,-13.7 c 1.7,-0.69 3.29,-1.48 4.77,-2.4 3.46,3.92 4.24,6.54 5.14,9.04 -2.44,1.66 -5,3.08 -7.84,3.95 -0.3,-3.21 -0.75,-6.54 -2.07,-10.59 m -4.88,-8.97 c 3.24,1.15 5.59,2.84 7.57,4.76 -1.12,0.63 -2.33,1.25 -3.73,1.8 -1.4,-3.35 -2.64,-5.13 -3.84,-6.56"
       fill="#505050"
       style="stroke-width:0"
       id="path1447" />
    <text
       fill="#000000"
       font-family="sans-serif"
       font-size="14px"
       lengthAdjust="spacing"
       textLength="82"
       x="278"
       y="572.5061"
       id="text1449">Web Service</text>
    <rect
       fill="none"
       height="72.067902"
       rx="2.5"
       ry="2.5"
       style="stroke:none;stroke-width:0.5"
       width="63"
       x="377"
       y="22"
       id="rect1451" />
    <path
       d="m 392.295,38.868 5.716,-9.866 23.019,-0.003 5.685,9.964 0.007,19.932 -5.691,9.958 -23.012,0.008 -5.782,-9.965"
       fill="#4d4d4d"
       style="stroke-width:0"
       id="path1453" />
    <path
       d="m 392.238,58.893 h 10.374 l -5.698,-10.041 4.634,-9.982 -9.252,-0.002 -5.796,10.065"
       fill="#ededed"
       style="stroke-width:0"
       id="path1455" />
    <path
       d="m 405.758,58.893 h 7.583 l 6.705,-9.773 -6.588,-10.156 h -8.92 l -5.373,9.814"
       fill="#e0e0e0"
       style="stroke-width:0"
       id="path1457" />
    <path
       d="m 386.5,48.932 5.738,9.964 h 10.375 l -5.636,-9.93"
       fill="#acacac"
       style="stroke-width:0"
       id="path1459" />
    <path
       d="m 399.274,48.934 6.485,9.962 h 7.582 l 6.6,-9.958"
       fill="#9e9e9e"
       style="stroke-width:0"
       id="path1461" />
    <path
       d="m 401.842,48.939 -1.957,0.57 -1.878,-0.571 7.667,-13.29 1.918,3.318"
       fill="#00b8e3"
       style="stroke-width:0"
       id="path1463" />
    <path
       d="m 407.584,58.893 -1.908,3.332 -5.093,-5.487 -2.58,-7.797 v -0.004 h 3.838"
       fill="#33c6e9"
       style="stroke-width:0"
       id="path1465" />
    <path
       d="m 398.008,48.938 h -0.004 v 0.003 l -1.917,3.322 -1.925,-3.307 1.952,-3.386 5.728,-9.92 h 3.834"
       fill="#008aaa"
       style="stroke-width:0"
       id="path1467" />
    <path
       d="m 419.104,58.893 h 11.612 l -0.007,-19.93 h -11.605"
       fill="#d4d4d4"
       style="stroke-width:0"
       id="path1469" />
    <path
       d="m 419.104,48.965 v 9.93 h 11.591 v -9.93"
       fill="#919191"
       style="stroke-width:0"
       id="path1471" />
    <path
       d="m 405.678,62.229 h -3.837 l -5.754,-9.967 1.917,-3.32"
       fill="#00b8e3"
       style="stroke-width:0"
       id="path1473" />
    <path
       d="m 421.019,48.938 -7.669,13.288 c -0.705,-1.036 -1.913,-3.33 -1.913,-3.33 l 5.753,-9.96"
       fill="#008aaa"
       style="stroke-width:0"
       id="path1475" />
    <path
       d="m 417.18,62.226 -3.83,-10e-4 7.67,-13.288 1.916,-3.318 1.922,3.34 m -3.839,-0.021 h -3.828 l -5.755,-9.973 1.905,-3.314 4.658,5.922"
       fill="#00b8e3"
       style="stroke-width:0"
       id="path1477" />
    <path
       d="m 422.936,45.617 v 0.003 l -1.917,3.318 -7.677,-13.286 3.841,0.002"
       fill="#33c6e9"
       style="stroke-width:0"
       id="path1479" />
    <text
       fill="#000000"
       font-family="sans-serif"
       font-size="14px"
       lengthAdjust="spacing"
       textLength="45"
       x="388"
       y="82.965897"
       id="text1481">IDP KC</text>
    <rect
       fill="none"
       height="72.067902"
       rx="2.5"
       ry="2.5"
       style="stroke:none;stroke-width:0.5"
       width="63"
       x="377"
       y="494.5401"
       id="rect1483" />
    <path
       d="m 392.295,511.4081 5.716,-9.866 23.019,-0.003 5.685,9.964 0.007,19.932 -5.691,9.958 -23.012,0.008 -5.782,-9.965"
       fill="#4d4d4d"
       style="stroke-width:0"
       id="path1485" />
    <path
       d="m 392.238,531.4331 h 10.374 l -5.698,-10.041 4.634,-9.982 -9.252,-0.002 -5.796,10.065"
       fill="#ededed"
       style="stroke-width:0"
       id="path1487" />
    <path
       d="m 405.758,531.4331 h 7.583 l 6.705,-9.773 -6.588,-10.156 h -8.92 l -5.373,9.814"
       fill="#e0e0e0"
       style="stroke-width:0"
       id="path1489" />
    <path
       d="m 386.5,521.4721 5.738,9.964 h 10.375 l -5.636,-9.93"
       fill="#acacac"
       style="stroke-width:0"
       id="path1491" />
    <path
       d="m 399.274,521.4741 6.485,9.962 h 7.582 l 6.6,-9.958"
       fill="#9e9e9e"
       style="stroke-width:0"
       id="path1493" />
    <path
       d="m 401.842,521.4791 -1.957,0.57 -1.878,-0.571 7.667,-13.29 1.918,3.318"
       fill="#00b8e3"
       style="stroke-width:0"
       id="path1495" />
    <path
       d="m 407.584,531.4331 -1.908,3.332 -5.093,-5.487 -2.58,-7.797 v -0.004 h 3.838"
       fill="#33c6e9"
       style="stroke-width:0"
       id="path1497" />
    <path
       d="m 398.008,521.4781 h -0.004 v 0.003 l -1.917,3.322 -1.925,-3.307 1.952,-3.386 5.728,-9.92 h 3.834"
       fill="#008aaa"
       style="stroke-width:0"
       id="path1499" />
    <path
       d="m 419.104,531.4331 h 11.612 l -0.007,-19.93 h -11.605"
       fill="#d4d4d4"
       style="stroke-width:0"
       id="path1501" />
    <path
       d="m 419.104,521.5051 v 9.93 h 11.591 v -9.93"
       fill="#919191"
       style="stroke-width:0"
       id="path1503" />
    <path
       d="m 405.678,534.7691 h -3.837 l -5.754,-9.967 1.917,-3.32"
       fill="#00b8e3"
       style="stroke-width:0"
       id="path1505" />
    <path
       d="m 421.019,521.4781 -7.669,13.288 c -0.705,-1.036 -1.913,-3.33 -1.913,-3.33 l 5.753,-9.96"
       fill="#008aaa"
       style="stroke-width:0"
       id="path1507" />
    <path
       d="m 417.18,534.7661 -3.83,-0.001 7.67,-13.288 1.916,-3.318 1.922,3.34 m -3.839,-0.021 h -3.828 l -5.755,-9.973 1.905,-3.314 4.658,5.922"
       fill="#00b8e3"
       style="stroke-width:0"
       id="path1509" />
    <path
       d="m 422.936,518.1571 v 0.003 l -1.917,3.318 -7.677,-13.286 3.841,0.002"
       fill="#33c6e9"
       style="stroke-width:0"
       id="path1511" />
    <text
       fill="#000000"
       font-family="sans-serif"
       font-size="14px"
       lengthAdjust="spacing"
       textLength="45"
       x="388"
       y="555.5061"
       id="text1513">IDP KC</text>
    <rect
       fill="#ffffff"
       height="381.4722"
       style="stroke:#181818;stroke-width:1"
       width="10"
       x="30"
       y="105.0679"
       id="rect1515" />
    <rect
       fill="#ffffff"
       height="158.53011"
       style="stroke:#181818;stroke-width:1"
       width="10"
       x="151"
       y="128.7739"
       id="rect1517" />
    <rect
       fill="#ffffff"
       height="158.53011"
       style="stroke:#181818;stroke-width:1"
       width="10"
       x="151"
       y="319.01001"
       id="rect1519" />
    <rect
       fill="#ffffff"
       height="31.705999"
       style="stroke:#181818;stroke-width:1"
       width="10"
       x="312"
       y="160.4799"
       id="rect1521" />
    <rect
       fill="#ffffff"
       height="31.705999"
       style="stroke:#181818;stroke-width:1"
       width="10"
       x="312"
       y="414.12811"
       id="rect1523" />
    <rect
       fill="#ffffff"
       height="31.705999"
       style="stroke:#181818;stroke-width:1"
       width="10"
       x="403.5"
       y="223.892"
       id="rect1525" />
    <rect
       fill="#ffffff"
       height="31.705999"
       style="stroke:#181818;stroke-width:1"
       width="10"
       x="403.5"
       y="350.716"
       id="rect1527" />
    <polygon
       fill="#181818"
       points="139,132.7739 143,128.7739 139,124.7739 149,128.7739 "
       style="stroke:#181818;stroke-width:1"
       id="polygon1529" />
    <line
       style="stroke:#181818;stroke-width:1"
       x1="40"
       x2="145"
       y1="128.7739"
       y2="128.7739"
       id="line1531" />
    <text
       fill="#000000"
       font-family="sans-serif"
       font-size="13px"
       font-weight="bold"
       lengthAdjust="spacing"
       textLength="7"
       x="47"
       y="122.9649"
       id="text1533">1</text>
    <text
       fill="#000000"
       font-family="sans-serif"
       font-size="13px"
       lengthAdjust="spacing"
       textLength="57"
       x="58"
       y="122.9649"
       id="text1535">accesURL</text>
    <polygon
       fill="#181818"
       points="300,164.4799 304,160.4799 300,156.4799 310,160.4799 "
       style="stroke:#181818;stroke-width:1"
       id="polygon1537" />
    <line
       style="stroke:#181818;stroke-width:1"
       x1="161"
       x2="306"
       y1="160.4799"
       y2="160.4799"
       id="line1539" />
    <text
       fill="#000000"
       font-family="sans-serif"
       font-size="13px"
       font-weight="bold"
       lengthAdjust="spacing"
       textLength="7"
       x="168"
       y="154.6709"
       id="text1541">2</text>
    <text
       fill="#000000"
       font-family="sans-serif"
       font-size="13px"
       lengthAdjust="spacing"
       textLength="75"
       x="179"
       y="154.6709"
       id="text1543">requeteHttp</text>
    <polygon
       fill="#181818"
       points="172,196.186 168,192.186 172,188.186 162,192.186 "
       style="stroke:#181818;stroke-width:1"
       id="polygon1545" />
    <line
       style="stroke:#181818;stroke-width:1;stroke-dasharray:2, 2"
       x1="166"
       x2="316"
       y1="192.186"
       y2="192.186"
       id="line1547" />
    <text
       fill="#000000"
       font-family="sans-serif"
       font-size="13px"
       font-weight="bold"
       lengthAdjust="spacing"
       textLength="7"
       x="178"
       y="186.377"
       id="text1549">3</text>
    <text
       fill="#000000"
       font-family="sans-serif"
       font-size="13px"
       lengthAdjust="spacing"
       textLength="95"
       x="189"
       y="186.377"
       id="text1551">redirectHttpIDP</text>
    <polygon
       fill="#181818"
       points="391.5,227.892 395.5,223.892 391.5,219.892 401.5,223.892 "
       style="stroke:#181818;stroke-width:1"
       id="polygon1553" />
    <line
       style="stroke:#181818;stroke-width:1"
       x1="161"
       x2="397.5"
       y1="223.892"
       y2="223.892"
       id="line1555" />
    <text
       fill="#000000"
       font-family="sans-serif"
       font-size="13px"
       font-weight="bold"
       lengthAdjust="spacing"
       textLength="7"
       x="168"
       y="218.08299"
       id="text1557">4</text>
    <text
       fill="#000000"
       font-family="sans-serif"
       font-size="13px"
       lengthAdjust="spacing"
       textLength="75"
       x="179"
       y="218.08299"
       id="text1559">requeteHttp</text>
    <polygon
       fill="#181818"
       points="172,259.598 168,255.598 172,251.598 162,255.598 "
       style="stroke:#181818;stroke-width:1"
       id="polygon1561" />
    <line
       style="stroke:#181818;stroke-width:1;stroke-dasharray:2, 2"
       x1="166"
       x2="407.5"
       y1="255.59801"
       y2="255.59801"
       id="line1563" />
    <text
       fill="#000000"
       font-family="sans-serif"
       font-size="13px"
       font-weight="bold"
       lengthAdjust="spacing"
       textLength="7"
       x="178"
       y="249.789"
       id="text1565">5</text>
    <text
       fill="#000000"
       font-family="sans-serif"
       font-size="13px"
       lengthAdjust="spacing"
       textLength="57"
       x="189"
       y="249.789"
       id="text1567">mireHtml</text>
    <polygon
       fill="#181818"
       points="51,291.304 47,287.304 51,283.304 41,287.304 "
       style="stroke:#181818;stroke-width:1"
       id="polygon1569" />
    <line
       style="stroke:#181818;stroke-width:1;stroke-dasharray:2, 2"
       x1="45"
       x2="155"
       y1="287.30399"
       y2="287.30399"
       id="line1571" />
    <text
       fill="#000000"
       font-family="sans-serif"
       font-size="13px"
       font-weight="bold"
       lengthAdjust="spacing"
       textLength="7"
       x="57"
       y="281.495"
       id="text1573">6</text>
    <text
       fill="#000000"
       font-family="sans-serif"
       font-size="13px"
       lengthAdjust="spacing"
       textLength="72"
       x="68"
       y="281.495"
       id="text1575">dessineMire</text>
    <polygon
       fill="#181818"
       points="139,323.01 143,319.01 139,315.01 149,319.01 "
       style="stroke:#181818;stroke-width:1"
       id="polygon1577" />
    <line
       style="stroke:#181818;stroke-width:1"
       x1="40"
       x2="145"
       y1="319.01001"
       y2="319.01001"
       id="line1579" />
    <text
       fill="#000000"
       font-family="sans-serif"
       font-size="13px"
       font-weight="bold"
       lengthAdjust="spacing"
       textLength="7"
       x="47"
       y="313.20099"
       id="text1581">7</text>
    <text
       fill="#000000"
       font-family="sans-serif"
       font-size="13px"
       lengthAdjust="spacing"
       textLength="65"
       x="58"
       y="313.20099"
       id="text1583">credentials</text>
    <polygon
       fill="#181818"
       points="391.5,354.716 395.5,350.716 391.5,346.716 401.5,350.716 "
       style="stroke:#181818;stroke-width:1"
       id="polygon1585" />
    <line
       style="stroke:#181818;stroke-width:1"
       x1="161"
       x2="397.5"
       y1="350.716"
       y2="350.716"
       id="line1587" />
    <text
       fill="#000000"
       font-family="sans-serif"
       font-size="13px"
       font-weight="bold"
       lengthAdjust="spacing"
       textLength="7"
       x="168"
       y="344.90701"
       id="text1589">8</text>
    <text
       fill="#000000"
       font-family="sans-serif"
       font-size="13px"
       lengthAdjust="spacing"
       textLength="28"
       x="179"
       y="344.90701"
       id="text1591">auth</text>
    <polygon
       fill="#181818"
       points="172,386.4221 168,382.4221 172,378.4221 162,382.4221 "
       style="stroke:#181818;stroke-width:1"
       id="polygon1593" />
    <line
       style="stroke:#181818;stroke-width:1;stroke-dasharray:2, 2"
       x1="166"
       x2="407.5"
       y1="382.42209"
       y2="382.42209"
       id="line1595" />
    <text
       fill="#000000"
       font-family="sans-serif"
       font-size="13px"
       font-weight="bold"
       lengthAdjust="spacing"
       textLength="7"
       x="178"
       y="376.6131"
       id="text1597">9</text>
    <text
       fill="#000000"
       font-family="sans-serif"
       font-size="13px"
       lengthAdjust="spacing"
       textLength="98"
       x="189"
       y="376.6131"
       id="text1599">redirectHttpAPP</text>
    <polygon
       fill="#181818"
       points="300,418.1281 304,414.1281 300,410.1281 310,414.1281 "
       style="stroke:#181818;stroke-width:1"
       id="polygon1601" />
    <line
       style="stroke:#181818;stroke-width:1"
       x1="161"
       x2="306"
       y1="414.12811"
       y2="414.12811"
       id="line1603" />
    <text
       fill="#000000"
       font-family="sans-serif"
       font-size="13px"
       font-weight="bold"
       lengthAdjust="spacing"
       textLength="14"
       x="168"
       y="408.31909"
       id="text1605">10</text>
    <text
       fill="#000000"
       font-family="sans-serif"
       font-size="13px"
       lengthAdjust="spacing"
       textLength="114"
       x="186"
       y="408.31909"
       id="text1607">requeteHttp-token</text>
    <polygon
       fill="#181818"
       points="172,449.8341 168,445.8341 172,441.8341 162,445.8341 "
       style="stroke:#181818;stroke-width:1"
       id="polygon1609" />
    <line
       style="stroke:#181818;stroke-width:1;stroke-dasharray:2, 2"
       x1="166"
       x2="316"
       y1="445.83411"
       y2="445.83411"
       id="line1611" />
    <text
       fill="#000000"
       font-family="sans-serif"
       font-size="13px"
       font-weight="bold"
       lengthAdjust="spacing"
       textLength="14"
       x="178"
       y="440.02509"
       id="text1613">11</text>
    <text
       fill="#000000"
       font-family="sans-serif"
       font-size="13px"
       lengthAdjust="spacing"
       textLength="79"
       x="196"
       y="440.02509"
       id="text1615">reponseHtml</text>
    <polygon
       fill="#181818"
       points="51,481.5401 47,477.5401 51,473.5401 41,477.5401 "
       style="stroke:#181818;stroke-width:1"
       id="polygon1617" />
    <line
       style="stroke:#181818;stroke-width:1;stroke-dasharray:2, 2"
       x1="45"
       x2="155"
       y1="477.5401"
       y2="477.5401"
       id="line1619" />
    <text
       fill="#000000"
       font-family="sans-serif"
       font-size="13px"
       font-weight="bold"
       lengthAdjust="spacing"
       textLength="14"
       x="57"
       y="471.73111"
       id="text1621">12</text>
    <text
       fill="#000000"
       font-family="sans-serif"
       font-size="13px"
       lengthAdjust="spacing"
       textLength="69"
       x="75"
       y="471.73111"
       id="text1623">dessineAPP</text>
    <!--SRC=[ZL7BJiCm4BpdAxOLL_C14Qh4uz0Aa29GnOMBuwoebTWnzhfL_vvr7gG4AN29ixCpwvdrIblLn0h1d4LmNXE6QnTDawt6HgYrTT9BCpGoBaWhxQGbMDzSnO1-ysvXp-SQP804p4aVGXryQp0Hxtnx6hbb_p-ddx0K31-rwXHlMC9hNtQgr49_MnHpdQwSgF6icbRMIRXxAE3n_aB3G9R9IAsDfkHxkL2aZvAmjvq-83QZhnoaKXZsBqyJRxGyd8dzxIS7ZvyH2RT4Rf9CVZrIz9PPbVQeAD6IfL-p65oSbKJ3BCEJjiGFCzHGOGZQuZFZd6-M279GV3jQqh89_qZLEU6D7HOiNCP9AVzSZQ2sHhku8DVQy2FN48j9Nm00]-->
  </g>
</svg>
